/* XPM */
static char *exit[] = {
/* columns rows colors chars-per-pixel */
"64 64 164 2 ",
"   c #422632",
".  c #472833",
"X  c #4D2B34",
"o  c #552F35",
"O  c #573036",
"+  c #5D3237",
"@  c #5F3C3F",
"#  c #633538",
"$  c #693839",
"%  c #643C3E",
"&  c #733D3B",
"*  c #553A40",
"=  c #6C514F",
"-  c #7C625B",
";  c #864B3A",
":  c #8E5637",
">  c #976433",
",  c #AB6D37",
"<  c #AF6F38",
"1  c #BA7C34",
"2  c #B27138",
"3  c #C35F27",
"4  c #C96226",
"5  c #C96228",
"6  c #D16626",
"7  c #D96A28",
"8  c #D16629",
"9  c #CB732D",
"0  c #D47E31",
"q  c #E76F23",
"w  c #EC7B27",
"e  c #EF762A",
"r  c #EF782C",
"t  c #F77622",
"y  c #F77823",
"u  c #F47D2E",
"i  c #EA7933",
"p  c #F57F33",
"a  c #8D5D52",
"s  c #976556",
"d  c #BF7F4E",
"f  c #A06655",
"g  c #AE725D",
"h  c #BA7F5E",
"j  c #D77643",
"k  c #D97F4B",
"l  c #C58236",
"z  c #C98437",
"x  c #CC8A34",
"c  c #DC8331",
"v  c #D48E36",
"b  c #D69135",
"n  c #DC9336",
"m  c #D6923A",
"M  c #DE993A",
"N  c #F88226",
"B  c #F98D2A",
"V  c #FB982D",
"C  c #EB8932",
"Z  c #E78E3D",
"A  c #F58335",
"S  c #F2833C",
"D  c #EDA235",
"F  c #F8A734",
"G  c #FDAD35",
"H  c #F1A63F",
"J  c #F6A93B",
"K  c #F8AB39",
"L  c #FDB53A",
"P  c #FDBA3E",
"I  c #BC8B57",
"U  c #B88466",
"Y  c #B18670",
"T  c #B48E77",
"R  c #B68D78",
"E  c #BD8A74",
"W  c #AC937D",
"Q  c #B8937B",
"!  c #DC8248",
"~  c #C58554",
"^  c #DA9653",
"/  c #F38740",
"(  c #ED995C",
")  c #D0A147",
"_  c #D9AA48",
"`  c #D6B756",
"'  c #FAAF43",
"]  c #F7AF4B",
"[  c #F5AB46",
"{  c #EDBB47",
"}  c #FAB346",
"|  c #F8B64F",
" . c #F3AD54",
".. c #F5B253",
"X. c #F7B958",
"o. c #F5B159",
"O. c #C28569",
"+. c #C68A6E",
"@. c #C68261",
"#. c #CA8F72",
"$. c #CB9375",
"%. c #CB9778",
"&. c #CE9C7C",
"*. c #D39C7D",
"=. c #EE9B64",
"-. c #D0A07F",
";. c #E9A866",
":. c #E9A86A",
">. c #F4BF6A",
",. c #F6BC60",
"<. c #E4A672",
"1. c #E5AB7C",
"2. c #E8AC76",
"3. c #E5B17F",
"4. c #DEC158",
"5. c #FDC244",
"6. c #FECC4C",
"7. c #FED14F",
"8. c #FBCC50",
"9. c #F6C95D",
"0. c #EED75D",
"q. c #FDDD5A",
"w. c #FED955",
"e. c #FEE45E",
"r. c #F4CF67",
"t. c #FCE461",
"y. c #FEE861",
"u. c #D69F80",
"i. c #D5A383",
"p. c #DBA686",
"a. c #DCA788",
"s. c #D6AD8A",
"d. c #DEAA8A",
"f. c #D9B28D",
"g. c #DAB490",
"h. c #DDBA94",
"j. c #DFBD98",
"k. c #E6AE83",
"l. c #E6B385",
"z. c #E7B28B",
"x. c #E8B38D",
"c. c #E7BB8C",
"v. c #ECB583",
"b. c #E6B492",
"n. c #E8B796",
"m. c #E5BD93",
"M. c #E8B996",
"N. c #E8BD9A",
"B. c #DDC099",
"V. c #EDC38C",
"C. c #EEC88D",
"Z. c #E7C193",
"A. c #E8C395",
"S. c #EECC93",
"D. c #E2C29B",
"F. c #E9C29C",
"G. c #E9CA9E",
"H. c #DEC7A2",
"J. c #E9C6A0",
"K. c #E5CAA2",
"L. c #E9CBA3",
"P. c #E7D0A7",
"I. c #EAD1A7",
"U. c #EAD4AA",
/* pixels */
"U.U.U.A.<.<.<.x.n.n.n.U.U.U.U.U.U.U.U.U.2.<.n.N.U.U.U.U.U.U.U.1.<.n.D.U.U.U.U.U.%.O.O.+.n.F.U.U.U.U.U.U.U.U.U.n.F.U.U.U.U.U.U.U.",
"L.G.L.Z.1.1.<.x.n.n.N.U.U.L.G.L.G.L.G.L.1.1.n.N.U.U.U.I.L.L.G.1.1.n.N.U.U.U.U.U.%.O.O.+.n.N.L.U.U.U.U.U.U.U.I.N.J.U.U.U.I.L.L.L.",
"<.<.<.1.n.n.n.n.n.I.U.U.G.<.<.<.<.<.<.<.b.n.n.N.U.U.U.c.<.<.<.n.n.n.N.U.U.U.U.U.%.O.O.+.n.n.n.J.U.U.U.U.U.U.U.U.U.U.U.U.l.<.<.<.",
"1.1.k.l.n.n.n.N.F.I.U.F.m.k.1.1.k.1.1.k.n.n.F.F.A.A.A.z.1.1.k.N.N.n.N.L.I.U.U.U.%.O.O.+.n.n.n.J.U.U.U.U.U.U.U.U.U.U.U.U.m.1.1.1.",
"n.n.n.n.n.n.n.L.U.U.U.<.1.n.n.n.n.n.n.n.M.M.U.G.<.<.<.k.n.n.n.U.I.n.n.n.J.U.U.U.%.O.O.+.n.n.n.J.U.U.U.U.U.U.U.U.U.U.U.U.N.n.n.n.",
"n.n.n.n.n.n.n.L.U.U.I.<.2.n.n.n.n.n.n.n.n.M.U.G.<.<.<.l.n.n.n.I.U.n.n.n.J.U.U.U.%.O.O.+.n.n.n.J.U.U.U.U.U.U.U.U.U.U.U.U.F.n.n.n.",
"n.n.n.n.n.n.n.L.U.U.I.<.1.n.n.n.n.n.n.n.n.M.U.G.<.<.<.z.n.n.n.U.I.n.n.n.J.U.U.U.%.O.O.+.n.n.n.F.U.U.U.U.U.U.U.U.U.U.U.U.J.n.n.n.",
"n.N.L.L.L.L.L.m.l.l.l.z.b.L.L.L.L.L.L.L.L.K.l.l.z.z.z.A.L.L.L.U.U.L.L.L.h.&.&.*.p.a.a.k.n.b.1.3.z.z.l.m.J.N.F.F.F.F.F.N.J.L.L.L.",
"n.m.U.U.U.U.U.l.<.<.<.n.N.U.U.U.P.U.U.U.U.I.<.1.n.n.n.K.U.U.U.U.U.U.U.U.g.h +.h d.n.n.n.n.z.<.<.<.<.<.b.n.n.n.n.n.n.n.n.L.U.U.U.",
"I.I.U.G.1.1.1.z.x.b.b.n.N.U.A.1.1.1...} } } K X.I.U.L.U.U.U.U.%.#.#.#.#.u.d.b.b.o.] ' ] } o.b.b.b.b.n.L.L.I.I.I.L.U.L.U.U.U.N.N.",
"U.U.U.A.<.<.<.z.M.n.n.M.N.U.A.<.<.<.[ G G G G | P.P.P.P.P.P.L.+.U O.U O.%.n.b.n.] G G G G  .b.b.b.n.n.L.U.U.I.I.U.U.U.U.U.U.N.n.",
"U.U.U.A.<.<.<.z.M.n.M.U.G.<.h & & & m G G G G n & & & & & & & & & & & & & & & & n G G G G v & & & h <.<.<.<.<.<.<.<.b.U.U.U.U.U.",
"L.G.G.Z.1.1.2.x.N.N.N.U.G.<.h & & & v G G G G n & & & & & & & & & & & & & & & & n G G L G b & & & h 1.1.1.1.<.1.<.1.z.G.L.L.G.G.",
"<.<.<.1.M.M.n.K.U.U.U.U.G.<.h & & & v G G G G n & & & & & & & & & & & & & & & & n G G G G v & & & E n.n.n.n.n.n.n.n.l.<.<.<.<.<.",
"1.k.1.z.F.F.F.A.A.A.A.A.Z.l.Y # + # v G 5.5.G b # + # # + # # # # # # & & # # + n G 5.} G v + # # R N.N.F.J.J.N.F.J.c.k.k.1.1.k.",
"n.n.n.F.U.U.U.l.<.<.<.<.3.U.W       x G e.e.G v                     X & +       v G t.e.G x       W U.U.U.U.U.U.U.U.J.n.n.n.n.n.",
"n.n.n.N.U.U.U.l.<.<.<.]  .>.I + + + ) 8.y.y.6._ + + + + + + # + + + # & $ + + + _ 7.e.e.6.) + + + I >.>.r.I.I.U.U.U.J.n.n.n.n.n.",
"n.n.N.F.U.U.U.l.<.<.<.G G G z & & & ` y.y.y.y.4.& & & & & & & & & & & & & & & & 4.y.y.y.y.` & & & z G G G U.U.U.U.U.J.n.n.n.n.n.",
"L.L.L.F.3.l.l.z.z.z.z.G G G z & & & ` y.y.y.y.4.& & & & & & & & & & & & & & & & 4.y.y.y.y.` & & & z G G G I.U.U.U.U.I.L.L.I.L.L.",
"U.U.U.A.<.<.<.z.M.M.n.G G G z & & & ` y.y.y.y.4.& & & & & & & & & & & & & & & & 4.y.y.y.y.` & & & z G G G I.U.U.U.U.U.U.U.U.U.U.",
"U.U.U.A.<.<.<.z.n.L.I.G G G z & & & m L L L L M & & & & & & & & & & & & & & & & M L L L G m & & & z G G L N.N.U.U.U.L.n.N.N.I.U.",
"U.U.U.A.<.<.<.z.n.I.I.G G G z & & $ b G G G G n & & $ & & & & & & & & $ & $ & & n G G G G v & & & z G G G b.N.U.U.U.J.n.n.n.L.U.",
"n.n.n.z.<.<.<.z.n.I.I.L G G 1       z G G G G b       + & X                     b G G G G x       1 G G G n.n.n.n.n.J.U.U.U.N.n.",
"z.z.x.k.1.1.1.c.N.U.I.G G G 1 X X X x G G G G b X X X # & o X X X X X X X X X X b G G G F x X o X 1 G G G x.x.x.b.n.F.I.L.L.n.b.",
"<.<.<.1.n.n.n.L.U.U.U.G G G x & & & v G G G G n & & & & & & & & & & & & & & & & n G G G G b & & & z G G G <.<.<.k.n.b.n.n.b.<.<.",
"k.k.k.z.D.J.J.h.g.g.f.G G G z & & & m G G G V c & & & & & & & & & & & & & & & & c V G G V 0 & & & z G G G k.1.k.k.z.z.k.z.z.k.k.",
"n.n.n.N.U.U.U.&.O.O.O.G G G z & & & v G G F t 7 & & & & & & & & & & & & & & & & 7 t G F t 6 & & & z G G G b.n.n.z.<.<.<.<.<.b.n.",
"n.n.n.F.U.U.U.u.O.O.O.G G G 1 O O O 9 B B B t 7 & $ O O O O O O + & & & & & # O 6 t B B t 3 O O O 9 G 6.7.n.n.n.z.<.<.<.<.<.b.n.",
"n.n.n.N.U.U.U.&.O.O.O.G G G 1       3 t t t t 7 & #             . & & & & & O   4 t t t t 3       1 L q.y.M.n.N.x.<.<.<.<.<.b.n.",
"n.N.L.h.&.&.%.p.d.k.d.G G G 1       4 t t t t 6 X X             . X X X X O     6 t t t t 3       1 G q.y.L.L.L.F.x.b.b.x.x.J.J.",
"n.N.U.h.O.O.O.a.n.n.n.G G G 1       4 t t t t 6                                 4 t t t t 3       1 G q.y.U.U.U.J.n.n.n.n.n.I.U.",
"U.I.U.h.O.O.O.a.n.n.n.G G G K D D D F F F G F F D D D D D D D D D D D D D D D D F G F G F D D { 0.e.e.e.y.U.U.U.U.U.I.I.I.I.U.U.",
"U.P.U.h.h #.h a.n.N.n.F F F G F F F F F F F G F F G F G F F G F G F F F G F F G G F F F F F F 5.q.q.e.q.q.U.U.U.U.U.U.U.U.U.U.U.",
"n.N.U.j.h h +.a.n.L.I.t y t t t t t t t t t t t t t t t y t t y t y t t t t t t t t t t y y t t t t t t t P.U.U.U.U.U.U.U.U.M.n.",
"N.J.U.n.u.h +.a.n.I.U./ A r u e q 4 4 4 4 4 4 4 4 3 4 4 4 u N N N N N 4 4 4 4 4 5 4 5 5 4 4 4 7 e e e i i m.m.m.B.D.K.U.U.U.D.N.",
"U.U.U.n.E h h a.n.I.U.n.k.j j j ;                 .       x G G G G x                 . .     ; j j j @.O.O.E O.O.O.s.U.U.U.U.U.",
"U.U.U.h.O.O.O.k.n.J.J.=.( Z Z Z :   X O O O O X   X O O o v K G G G x O O O X   X O O O O X   : Z Z Z ! k *.*.*.%.u.p.f.K.U.L.L.",
"U.U.U.h.O.O.O.p.n.n.n.t N G G G >   # & & & & $   O & & $ m L G L G b & & & o   $ & & & & #   > G G G N t b.n.n.n.n.u.O.h.U.N.n.",
"U.U.U.h.O.O.O.p.n.n.b.t N G G G >   $ & & & & $   o & & & k ^ 8.6.^ k $ & & o   $ & & & & $   > G G G N t F.L.L.F.n.u.O.h.U.L.L.",
"U.U.U.h.O.O.O.k.n.n.n.t N G G G >   # & & & & $   O & & & g O.t.t.U g & & & o   $ & & & & #   > G G G N t I.U.U.L.n.u.O.h.U.I.I.",
"U.U.U.h.h h #.d.n.n.b.t N G G G , $ $ & & & & $   o & & & % * C C @ % & & & $ $ & & & & & # . > G G G N t U.U.U.L.n.u.O.h.U.U.U.",
"U.U.U.d.h E h d.n.n.b.t N G G G 2 & & & & & & $   o & & & o   q q   X & & & & & & & & & & #   > G G G N t U.U.U.L.n.u.O.h.U.U.U.",
"h E h u.n.n.n.n.M.2.<.<.;.G G G 2 & & & & & & $ . o & Q K.=   j.j.  = P.R & o . $ & & & & & & 2 G G G C.L.U.U.U.U.U.F.n.%.+.+.+.",
"u.h u.u.n.n.n.n.b.1.2.2.:.G G G < & & & & & & $ . O & Q U.- * H.H.* - U.Q & o   $ & & & & & & 2 G G G C.L.I.L.L.U.U.J.n.u.+.+.+.",
"n.n.n.n.n.n.n.d.<.G.U.U.S.G G G >   $ & & & & & & & & Q U.U.U.U.U.U.U.U.Q & o   $ & & & & & & 2 G L G ;.<.<.<.<.l.U.U.U.N.n.n.n.",
"x.x.n.n.n.n.n.d.<.I.U.I.C.G G G >   # & & & & & # $ & Y j.j.m.j.j.N.m.h.Y & o   $ & & & & $ # , G G G :.1.1.1.1.l.F.L.U.N.n.n.n.",
"=.k.n.n.n.n.n.k.<.G.U.n.3.G G G >   # & & & & $   O & f O.O.O.O.E O.O.O.s & O   $ & & & & $   > G G G v.n.n.n.n.z.<.m.U.J.n.n.n.",
"k.d.n.n.n.n.b.k.<.G.U.F.V.L G G >   # & & & & $ . O & s O.O.O.a a O.O.O.f & O . $ & & & & $   > G G L 2.k.z.k.l.l.c.N.J.N.n.n.n.",
"n.b.n.n.n.n.n.1.<.L.U.U.S.G G G >   $ & & & & #   O & f O.O.O.X X O.O.O.s & O   $ & & & & #   > G G L ;.<.<.<.<.l.U.J.n.n.n.n.n.",
"k.k.k.k.k.1.1.m.A.I.U.X.X.G L G b 1 l x z z z l 1 1 z ~ O.O.O.s s O.O.O.~ x 1 1 l z z z z l 1 b G G G 9.r.A.A.A.A.F.N.n.n.n.k.k.",
"<.<.=.<.<.<.2.F.U.U.I.G G G G G G G G G G G L G G G G ^ O.O.O.O.O.O.O.O.^ G G G G G G G G G G G G G G w.y.U.U.U.L.M.M.n.n.n.1.<.",
"<.<.<.<.<.<.<.F.U.U.U.G G G G G G G G G G G G G G G G K H H H [ H [ H H F G 6.e.P G w.q.q.7.G 5.e.w.e.e.y.U.U.U.L.M.n.n.n.n.<.<.",
"<.<.<.<.<.<.<.N.U.U.U.G G G G G G G G G G G G G L G G G G G G G G G G G G G 7.e.P G e.y.y.w.G 6.e.e.e.y.y.U.U.U.L.n.n.m.n.N.1.<.",
"U.I.U.U.U.I.U.U.U.U.I.y y y y y y y y y y y t t y t t t y y y y y y y y t t t y y y y y y y y y y y y y y n.M.M.z.<.<.<.<.<.<.<.",
"U.U.U.U.U.U.U.J.K.G.D.r u A A A A A A A p u p p p p p A A A A A A A A u A A A A u u A u u u u u N A u u N x.b.b.z.1.1.1.1.1.1.2.",
"U.U.U.U.U.U.U.u.O.U O.O.#.M.F.U.U.U.U.U.1.<.n.n.n.n.n.L.U.U.U.U.U.I.G.<.c.U.U.U.3.<.<.<.<.<.<.<.<.<.<.<.<.<.<.<.l.U.U.U.P.U.U.U.",
"j.h.h.j.h.h.h.u.%.$.$.*.*.N.J.U.U.U.U.U.1.<.n.N.F.F.N.A.F.F.A.A.A.G.c.1.m.U.L.A.l.1.1.k.1.1.1.k.l.l.l.l.l.l.l.l.c.U.U.U.D.j.h.h.",
"O.O.O.O.O.O.E a.n.n.n.n.N.U.U.U.U.U.U.U.2.2.n.N.U.U.U.c.<.<.2.<.<.<.1.M.F.U.c.<.z.n.n.n.n.n.n.J.U.U.U.U.U.U.U.U.U.U.U.U.i.O.O.O.",
"*.*.*.u.*.*.u.m.J.J.J.J.L.U.L.m.c.c.n.c.l.k.J.K.U.L.m.z.l.k.k.k.k.k.z.F.L.U.l.<.b.n.n.M.J.J.J.M.s.s.s.s.s.s.s.s.s.s.s.s.i.*.-.*.",
"M.M.n.n.n.M.M.L.U.U.U.U.U.U.A.<.<.<.<.<.b.M.U.U.U.Z.<.k.n.m.n.n.n.n.F.U.U.U.c.<.z.n.n.N.U.U.U.s.O.O.O.O.O.O.O.O.O.O.O.O.a.M.M.M.",
"L.L.L.L.L.L.L.P.U.c.l.l.v.v.z.z.z.z.z.z.J.L.U.U.U.Z.<.l.n.M.n.J.G.1.3.l.l.l.Z.A.L.L.L.F.-.-.-.i.a.p.p.a.a.p.p.p.p.p.p.a.b.n.J.L.",
"U.U.U.U.U.U.U.U.U.1.<.<.<.<.1.n.n.n.n.n.U.U.U.U.U.Z.<.k.n.n.n.U.I.<.<.<.<.<.Z.U.U.U.U.K.O.O.O.*.M.M.n.M.n.n.n.n.n.n.n.n.n.n.L.U.",
"U.U.U.U.U.U.U.U.U.1.<.<.<.<.1.M.n.n.n.n.I.U.U.U.U.A.<.z.n.n.M.I.I.<.<.<.<.<.A.U.U.U.U.K.O.O.O.*.n.n.n.n.n.n.n.n.n.n.n.n.n.n.U.U.",
"U.U.U.U.U.U.U.U.U.2.<.<.<.<.k.n.n.n.n.n.I.U.U.U.U.A.<.k.n.n.n.I.I.<.<.<.<.2.Z.U.U.U.U.K.O.O.O.*.n.n.n.n.n.n.n.n.n.n.n.n.n.n.I.U."
};
