/* XPM */
static char *exit_resized[] = {
/* columns rows colors chars-per-pixel */
"32 32 180 2 ",
"   c #412532",
".  c #4C2A33",
"X  c #542E35",
"o  c #573036",
"O  c #5B3336",
"+  c #5B3138",
"@  c #613534",
"#  c #633936",
"$  c #6B3A37",
"%  c #643639",
"&  c #683739",
"*  c #6D3A3A",
"=  c #723C3B",
"-  c #733D37",
";  c #6D403A",
":  c #784137",
">  c #744835",
",  c #7B4E33",
"<  c #74423C",
"1  c #794239",
"2  c #7D493E",
"3  c #7E5034",
"4  c #6D4242",
"5  c #8B462C",
"6  c #8E5A34",
"7  c #835433",
"8  c #995E36",
"9  c #955B38",
"0  c #985C39",
"q  c #A6542E",
"w  c #9A6435",
"e  c #9E6338",
"r  c #9E6F39",
"t  c #9F6833",
"y  c #BA672D",
"u  c #A16933",
"i  c #A36439",
"p  c #A97034",
"a  c #CE6325",
"s  c #D16525",
"d  c #D76B27",
"f  c #DC7029",
"g  c #FB7822",
"h  c #E17636",
"j  c #88544B",
"k  c #965945",
"l  c #985F4E",
"z  c #986443",
"x  c #896359",
"c  c #996252",
"v  c #96695C",
"b  c #9D6959",
"n  c #AA6F48",
"m  c #B17554",
"M  c #A57261",
"N  c #B37D65",
"B  c #B37E68",
"V  c #BC8035",
"C  c #DB8832",
"Z  c #D79135",
"A  c #DD9536",
"S  c #DC9A3A",
"D  c #E3862D",
"F  c #E6882D",
"G  c #F58F2C",
"H  c #F88F2A",
"J  c #F7902C",
"K  c #FA922C",
"L  c #FB982E",
"P  c #E08D33",
"I  c #EC8D39",
"U  c #E09636",
"Y  c #E7953A",
"T  c #E19E3B",
"R  c #FA9B32",
"E  c #F1953F",
"W  c #EEA43E",
"Q  c #F4A734",
"!  c #F6A835",
"~  c #FBAB34",
"^  c #FAAD3D",
"/  c #FBA539",
"(  c #FFB136",
")  c #F9B43B",
"_  c #FFB93C",
"`  c #BE9A48",
"'  c #A2826E",
"]  c #B48A6D",
"[  c #A88773",
"{  c #DA9754",
"}  c #DC9852",
"|  c #EB8B4A",
" . c #ED914F",
".. c #E78F58",
"X. c #ED9354",
"o. c #EF975C",
"O. c #E79B56",
"+. c #DCB650",
"@. c #DFBC53",
"#. c #ECA440",
"$. c #F4AD4E",
"%. c #FBAD40",
"&. c #F9BE44",
"*. c #F7B64D",
"=. c #E6A856",
"-. c #F3AD57",
";. c #F5B25A",
":. c #F6B754",
">. c #C18468",
",. c #C48A6D",
"<. c #D79266",
"1. c #C18B72",
"2. c #CB9476",
"3. c #CC9778",
"4. c #CE9D7D",
"5. c #D09779",
"6. c #D29B7C",
"7. c #ED9C64",
"8. c #E09161",
"9. c #D8A17D",
"0. c #EFA76A",
"q. c #EFA164",
"w. c #F0A96C",
"e. c #F0A566",
"r. c #EFB468",
"t. c #F3B364",
"y. c #F3BE6D",
"u. c #F3B568",
"i. c #E4A572",
"p. c #E5A976",
"a. c #E5AC7D",
"s. c #ECAA71",
"d. c #E7B17F",
"f. c #ECB776",
"g. c #F2BD72",
"h. c #FAC447",
"j. c #FFCB4B",
"k. c #E2C256",
"l. c #FDD652",
"z. c #FFE75E",
"x. c #FFE85F",
"c. c #F4C270",
"v. c #F1C57E",
"b. c #F4D57F",
"n. c #D3A383",
"m. c #D9A586",
"M. c #D4A987",
"N. c #D7AA88",
"B. c #DDA989",
"V. c #D9B18D",
"C. c #D9B793",
"Z. c #DDBA95",
"A. c #DDBD99",
"S. c #E6AE82",
"D. c #E5AF8B",
"F. c #E6B284",
"G. c #EAB384",
"H. c #E6B38A",
"J. c #E7BA8C",
"K. c #E8B884",
"L. c #E6B593",
"P. c #E8B695",
"I. c #E6BC93",
"U. c #E8BA96",
"Y. c #E5BD99",
"T. c #E8BC99",
"R. c #EAC08F",
"E. c #F4DE85",
"W. c #E8C295",
"Q. c #E3C29C",
"!. c #E9C49D",
"~. c #E7CA9F",
"^. c #E9C99D",
"/. c #EAC693",
"(. c #E7C6A0",
"). c #E9C6A0",
"_. c #E6CDA4",
"`. c #E9CBA3",
"'. c #EAD0A7",
"]. c #EAD4AA",
/* pixels */
"~.W.a.S.U.`.`.`.~.!.G.U.].'.`.J.H.`.].`.2.,.P.`.].].].`.`.].`.~.",
"S.F.L.U.).`.J.a.S.S.L.U.^.W.S.H.U.!.]._.2.,.L.!.].].].].].'.J.a.",
"L.P.P.T.].W.F.P.L.L.T.~.p.a.L.!.).P.`.].2.,.L.T.].].].].].].T.L.",
"U.!.!.!.W.H.L.!.).!.!.W.S.K.!.`.`.).Z.V.n.6.L.J.T.!.`.`.`.`.!.!.",
"~.`.W.J.S.H.).!.J.v.y.u.!.`.].Q.V.B.n.9.s.u.s.G.F.P.!.).!.~.`.`.",
"].^.p.a.P.!.W.,.m W ~ #.] ] [ M c c M N #.( W N 1.H.J.I.P.`.'.`.",
"J.K.F.P.!._.K.l 1 A ( U 1 = * = = = * 1 U ( A : c S.S.S.F.K.J.J.",
"H.H.`.Q.K.K.K.x O S j.S # X o o o % % # S j.S O x Q.`.`.`.P.D.F.",
"T.!.`.W.p.-.$.z * +.x.@.< # % % % $ % < @.x.+.; z :.R.].]./.U.U.",
"`.!.F.F.H.t.! i 2 @.z.k.2 = < = = = 1 2 k.x.@.1 i ~ g.].].'.`.`.",
"'.!.p.a.!.y.~ e 1 S _ T 1 * = $ * * * 1 T _ T 1 i Q u.).].).!.`.",
"L.H.a.F.`.c.Q 6 O Z ~ A O + % X . X . # A ~ Z O 6 ~ ;.L.U.).`.T.",
"a.S.U.Y.A.r.~ i 1 A ~ P 1 = = = = * * 1 P ~ C 1 i ~ -.S.D.L.H.S.",
"L.T.].Z.,.O.~ e $ C L f 1 % @ % * < = = f K d $ 8 ^ y.P.a.i.p.H.",
"U.Y.C.N.5.=.! 6 . s g d @       . + + o s g a . 7 h.b.T.H.S.S.T.",
"`.Y.,.5.I.t.~ p t D K F u w w w w t w u F H D r ` l.E.].`.).!.].",
"`.Q.>.5.T.e.H H J G J J G G K K K K J K G G G R %.%.g.].].].].(.",
"`.Q.,.5.!.G.| h q 5 5 5 5 5 y L L y 5 5 5 5 5 q h h <.N.N.Q.].`.",
"].Q.,.5.T.s.E Y > o % o . + e ^ ^ w + . + % X > Y I 8.N.m.M.Q.`.",
"].Q.,.5.P.o.L Q 3 % = $ X * k =.=.k * X * = % , Q K 7.`.T.5.Q.`.",
"_.Z.,.6.P.o.R Q 9 * = & X 4 4 i i 4 = & = = % 7 ! L w.].Q.n.Z.`.",
"3.6.L.L.K.s.$.Q 0 = = * X v [ ' ' [ v X * = = 9 ! ;.^.`.`.T.n.3.",
"D.L.P.H.J.'.u.Q , & = = % v C.L.A.V.v X & = = 9 ! -.S.S.U.`.L.L.",
"S.P.P.D.J.`.t.Q , % = & X j ,.N ] ] j X & = % , Q ;.S.D.J.Q.T.L.",
"D.H.H.F.W./.:.~ p e i e 6 n ] b b >.n 6 8 i w p ~ *.d.J.W.T.U.H.",
"i.i.i.H.].g.~ ( ~ ! ! ~ ~ #.O.{ { } #.&.) h.h.) h.l.E.].!.U.P.a.",
"J.J.J.^.].r.K K K L K K L K K K K K K / R %./ R ^ ) g.).H.G.S.p.",
"].].].Q.N.<.X.0.w.0.X.7.7.7.0.w.w.o.q.0.X. . .X. . .7.S.J.I.I.J.",
"n.M.n.n.m.N.Y.'.].`.F.T.`.!.J.J.J.J.!.W.J.D.H.H.W.I.Y.Y.(._.V.n.",
"m.N.N.L.`.).`.Y.K.H.H.`.~.H.H.H.J.U.`.K.L.Y.!.Y.n.n.9.n.n.n.m.N.",
"`.`.].].W.S.d.F.H.L.`.].!.a.P.!.J.a.F.W.'.!.5.6.N.B.B.B.D.B.P.`.",
"].].].].R.i.i.H.P.I.'.].^.d.P.~.J.i.i.^.].(.1.2.L.I.P.P.P.U.T.`."
};
