/* XPM */
static char *floor_resized[] = {
/* columns rows colors chars-per-pixel */
"32 32 45 1 ",
"  c #C78E70",
". c #C98E71",
"X c #CB9476",
"o c #CE9778",
"O c #CF997A",
"+ c #D29D7D",
"@ c #D2A07F",
"# c #E4A775",
"$ c #E5A977",
"% c #E5AC7C",
"& c #E5B07F",
"* c #D39F80",
"= c #D4A282",
"- c #D9A585",
"; c #D6A887",
": c #D9A887",
"> c #D7AA88",
", c #DBAC8B",
"< c #D9B18D",
"1 c #DCB692",
"2 c #DDB994",
"3 c #DFBE98",
"4 c #E6AF82",
"5 c #E1AE8D",
"6 c #E6B184",
"7 c #E6B48B",
"8 c #E7BB8D",
"9 c #E6B592",
"0 c #E8B693",
"q c #E5BB93",
"w c #E8BA95",
"e c #E3BE99",
"r c #E8BE99",
"t c #E7C093",
"y c #E8C196",
"u c #E4C39C",
"i c #E9C49C",
"p c #E6C89F",
"a c #E8C99E",
"s c #E7C7A0",
"d c #E9C7A0",
"f c #E6CBA2",
"g c #E9CCA3",
"h c #E9D0A7",
"j c #EAD3A9",
/* pixels */
"ay%4rdggga&wjhuw8djfX.0gjjjggjjd",
"660rdi84%60ray49wdjgX.9rjjjjjj84",
"70wrgq70w0ei%&8iswffX.9rjjjjjjr0",
"riiry8wrwii867iiseeq**90rddggdii",
"igt860iy8tq8iufe<<-*990468ddddgd",
"ha%4wyy8778iu<,;*-5900097788wigd",
"8878aa8widiu>:-59999644467867788",
"78ay678gjg>=,997444%77590ddgdw77",
"wydy%%qhhpoX9996$%%%50wwrjjjhiww",
"ga667raf>O>7w7%8yaaa6470rhhhjhhh",
"gi$&is,+-9sw77&8ahjjda6460rdhirh",
"w7%6i,-599w76tghhfuijjfe87070ddw",
"&6wue;557468gjjf3>+O93uhd0440074",
"0rs1X*96igggjjh<X=97o.Ofhd004#$7",
"rr1;+:06ajgjf21>*5ee*O*0hhdr066w",
"ieXO9970gjig<==,wiggdr9-dhhhdrdg",
"su.owy6tjjdu=9ugfyqtah7=ufgghhhf",
"sw.Oei6yjjf>,ighi98788y>;;-->shf",
"he orw6ajjfO9ghhriai%&ai,,,,:;ss",
"hs.O9w6ydiuO9ihi0gda%%hhffggeOsg",
"f3Xo795yrrs+9igt6aid6&ahjjjje*ef",
"o*5576qhhfsowhjt7iigr067ggggfw*o",
"59098gggduuOqga88ddhggrw6&%4wf29",
"4999qfgsee1*qy&6ighdggdi76777de0",
"4767yhu>*+-9qi$6agq877778788qrw7",
"%$$7hh>:70wdgy$6iy&$$$$6ghhgyw0$",
"8w8uhf><iait886qaq888888iiii876$",
"sffy>>>wgh878wiig8ya888766778t80",
";;>>><edha4wdy8788a877977eewaa<=",
",,,wuuat768ga7878qa69wu3=***@=,,",
"gfggy&6600aha4wy8&6iss**>,55550d",
"jjjht$$70whha47y8$$ahs Xqw009wwh"
};
