/* XPM */
static char *floor[] = {
/* columns rows colors chars-per-pixel */
"64 64 43 1 ",
"  c #C28569",
". c #C68A6D",
"X c #C78E70",
"o c #CA8F72",
"O c #CB9275",
"+ c #CE9678",
"@ c #CD997A",
"# c #D19B7C",
"$ c #E4A672",
"% c #E4A976",
"& c #E5AB7C",
"* c #E5B17F",
"= c #D69F80",
"- c #D3A382",
"; c #D9A485",
": c #D5A987",
"> c #DCA788",
", c #D6AC89",
"< c #DEA98A",
"1 c #D8B18E",
"2 c #DBB792",
"3 c #DDBA95",
"4 c #E6AE82",
"5 c #E1AE8E",
"6 c #E6B385",
"7 c #E7B38B",
"8 c #E7BB8C",
"9 c #E6B492",
"0 c #E8B795",
"q c #E7BB91",
"w c #E8B996",
"e c #E4BD99",
"r c #E8BD9A",
"t c #E7C092",
"y c #E8C396",
"u c #E3C59E",
"i c #E9C39C",
"p c #E9CA9E",
"a c #E9C6A0",
"s c #E6CCA3",
"d c #E9CCA4",
"f c #E9D0A6",
"g c #EAD4AA",
/* pixels */
"ffpp%%4400aaggffffff%%rrggggddqq77ddffggXX..rrffggggggaaddggggff",
"ffpp%%4400aaggffffff%%rrggggddqq77ddffggXX..rrffggggggaaddggggff",
"%%&&00rraadd77%%%%%%00rrddyy%%55wwaaggggXX..00rrggggggggffgg66%%",
"%%&&00rraadd77%%%%%%00rrddyy%%55wwaaggggXX..00rrggggggggffgg66%%",
"000000rrgg886600rr00rrdd$$&&00aauu00ddggXX  00rrggggggggggggrr00",
"000000rrgg886600rr00rrdd$$&&00aauu00ddggXX  00rrggggggggggggrr00",
"00iiiiiiyy8800iirriirryy&&66iiaaddrreeee####0077yyiiddddddaaiiii",
"00iiiiiiyy8800iirriirryy&&66iiaaddrreeee####0077yyiiddddddaaiiii",
"iiffyy884477ddiiqqyytt44aaaagguu1111==##990000444488aaaaaaaaffaa",
"iiffyy884477ddiiqqyytt44aaaagguu1111==##990000444488aaaaaaaaffaa",
"ggdd$$&&00rryy66664444ssss,,,,--====9900000000009977888888ddggaa",
"ggdd$$&&00rryy66664444ssss,,,,--====9900000000009977888888ddggaa",
"88666699ddff77ttaaaaddss--;;;;5500000000444444&&4444774466668877",
"88666699ddff77ttaaaaddss--;;;;5500000000444444&&4444774466668877",
"7788ddyy666688ffgggg--==<<000077&&&&44&&7777557700dddddddd007777",
"7788ddyy666688ffgggg--==<<000077&&&&44&&7777557700dddddddd007777",
"00rrffyy$$$$ttgggggg....ww000044$$$$$$$$00000000rrggggggggii0000",
"00rrffyy$$$$ttgggggg....ww000044$$$$$$$$00000000rrggggggggii0000",
"ffdd&&4499rrffgg--XX<<99ww77%%88ppddssff&&%%0000iiggggffggffggff",
"ffdd&&4499rrffgg--XX<<99ww77%%88ppddssff&&%%0000iiggggffggffggff",
"ffdd$$&&iigg::..<<00gg000077%%88ppddggggddff%%%%440000aaggrr00gg",
"ffdd$$&&iigg::..<<00gg000077%%88ppddggggddff%%%%440000aaggrr00gg",
"0077%%44aa::;;0099990077%%88ggggggssssaaggggggrr8844009900ddff00",
"0077%%44aa::;;0099990077%%88ggggggssssaaggggggrr8844009900ddff00",
"%%44rriiuu::<<9966&&&&66ggggggssuu--OOXXeeuuuuggdd00&&%%777799&&",
"%%44rriiuu::<<9966&&&&66ggggggssuu--OOXXeeuuuuggdd00&&%%777799&&",
"00rrff33  ==00&&ppgggggggggggg11  ;;0000XX  XXggffaa000044$$$$99",
"00rrff33  ==00&&ppgggggggggggg11  ;;0000XX  XXggffaa000044$$$$99",
"wwii22,,++<<0044ppggddggff2222::++55rrii##++##rrggffaaii774444rr",
"wwii22,,++<<0044ppggddggff2222::++55rrii##++##rrggffaaii774444rr",
"aauu  ++00007777ffggwwff,,####<<rriiggggaauu99++ffddggffaaiiaaff",
"aauu  ++00007777ffggwwff,,####<<rriiggggaauu99++ffddggffaaiiaaff",
"uuss  ++rryy44yyggggaassoorraaddffyy8888gggg77++ddddggggggffggaa",
"uuss  ++rryy44yyggggaassoorraaddffyy8888gggg77++ddddggggggffggaa",
"aaaa  ++aaii44yygggggg==55iiffggyy7777776688uu;;----==----ssggss",
"aaaa  ++aaii44yygggggg==55iiffggyy7777776688uu;;----==----ssggss",
"ggaa  ++rrrr44ppggggffXX00ddggggrriidddd%%%%ffaa,,<<<<<<>>==ssrr",
"ggaa  ++rrrr44ppggggffXX00ddggggrriidddd%%%%ffaa,,<<<<<<>>==ssrr",
"ffss  ++0000&&yyaarrffXX00iiggyy77ddiidd&&%%ggggddffddffrroossff",
"ffss  ++0000&&yyaarrffXX00iiggyy77ddiidd&&%%ggggddffddffrroossff",
"ggss  OO000044iirr00ffXXwwrrggtt66ddiiff&&%%ffggggggggggaaOOssff",
"ggss  OO000044iirr00ffXXwwrrggtt66ddiiff&&%%ffggggggggggaaOOssff",
"..oo009955%%ttggggffff..rrffggtt44aarrddrr00%%44ggggddggffrroo..",
"..oo009955%%ttggggffff..rrffggtt44aarrddrr00%%44ggggddggffrroo..",
"9900005588ggffffrrrrffXXrrffdd8877ddaaffffffrr99%%%%%%%%qqggee00",
"9900005588ggffffrrrrffXXrrffdd8877ddaaffffffrr99%%%%%%%%qqggee00",
"&&00007788aassssuuuueeOOqqpp$$44aaggffddddffdddd9977997766aaee00",
"&&00007788aassssuuuueeOOqqpp$$44aaggffddddffdddd9977997766aaee00",
"77777766yyggpp--++++++rr88pp$$44dddd00777777777766666666yyrr0077",
"77777766yyggpp--++++++rr88pp$$44dddd00777777777766666666yyrr0077",
"$$$$$$66gggg-->>000000ffggii$$44aayy&&$$$$$$$$**ggggggggiiww00%%",
"$$$$$$66gggg-->>000000ffggii$$44aayy&&$$$$$$$$**ggggggggiiww00%%",
"88qq88iigggg--,,aaaappqq888844qqddqq8888888888ttiiaaaaaa886644%%",
"88qq88iigggg--,,aaaappqq888844qqddqq8888888888ttiiaaaaaa886644%%",
"ffgggguu--::::00ffff88666600aaddff88iigg888888664444444488ttttqq",
"ffgggguu--::::00ffff88666600aaddff88iigg888888664444444488ttttqq",
"--##----;;<<eeffgggg%%wwddii66666677dd8877777777yyiiyyiiddgg::==",
"--##----;;<<eeffgggg%%wwddii66666677dd8877777777yyiiyyiiddgg::==",
"<<<<,,99ddddgg88444477ffdd66887788iiff&&99wwdduu@@@@@@@@@@@@>><<",
"<<<<,,99ddddgg88444477ffdd66887788iiff&&99wwdduu@@@@@@@@@@@@>><<",
"ddggffffii&&&&660099ffggpp&&wwii88&&&&ppddssOO##11555555555500dd",
"ddggffffii&&&&660099ffggpp&&wwii88&&&&ppddssOO##11555555555500dd",
"ggggggggtt$$$$770000ffffpp&&00ii88$$$$ppggdd  OO00ww0000000000gg",
"ggggggggtt$$$$770000ffffpp&&00ii88$$$$ppggdd  OO00ww0000000000gg"
};
