/* XPM */
static char *keys_resized[] = {
/* columns rows colors chars-per-pixel */
"32 32 116 2 ",
"   c #D77643",
".  c #D87745",
"X  c #D77845",
"o  c #D87B45",
"O  c #D87C4A",
"+  c #CA7F5A",
"@  c #E1853F",
"#  c #EB953D",
"$  c #FBAE3C",
"%  c #FCB13E",
"&  c #DC8246",
"*  c #DE8946",
"=  c #DA804E",
"-  c #DD8A55",
";  c #D28B58",
":  c #DC8A5B",
">  c #DE915F",
",  c #E99340",
"<  c #E89A45",
"1  c #E49C4D",
"2  c #E99F49",
"3  c #E6A04C",
"4  c #E8A64E",
"5  c #E4A356",
"6  c #EAAF57",
"7  c #EAB057",
"8  c #C58A6E",
"9  c #CE8E6E",
"0  c #D38C64",
"q  c #DE8F64",
"w  c #DD9264",
"e  c #D7976C",
"r  c #DF956A",
"t  c #DF9E6F",
"y  c #C78E70",
"u  c #CA9275",
"i  c #CD9778",
"p  c #CE9B7C",
"a  c #DF9D72",
"s  c #D29C7D",
"d  c #E09867",
"f  c #E19E6D",
"g  c #E09B72",
"h  c #E19F78",
"j  c #DEA372",
"k  c #DEAC7D",
"l  c #E4A462",
"z  c #E2A06F",
"x  c #E9AA6B",
"c  c #EAB362",
"v  c #E3A572",
"b  c #E4A875",
"n  c #E2A579",
"m  c #E5AC7C",
"M  c #E6B273",
"N  c #E9B273",
"B  c #EABF76",
"V  c #E3B17B",
"C  c #E9B17E",
"Z  c #F0B876",
"A  c #FDC244",
"S  c #FECF4D",
"D  c #FED04E",
"F  c #F3C557",
"G  c #F3C858",
"H  c #FBDF5E",
"J  c #F3CA60",
"K  c #F4D168",
"L  c #F8DB69",
"P  c #EFCB7E",
"I  c #F2CE73",
"U  c #F3D077",
"Y  c #F3D07B",
"T  c #D69E80",
"R  c #D4A382",
"E  c #D9A585",
"W  c #D5A987",
"Q  c #D9AA87",
"!  c #D6AD8A",
"~  c #DCAB8A",
"^  c #DAB18E",
"/  c #DBB692",
"(  c #DEBB96",
")  c #E5AE83",
"_  c #E1AE8D",
"`  c #E6B185",
"'  c #ECB582",
"]  c #E7B887",
"[  c #ECB884",
"{  c #E7B48A",
"}  c #E7BB8C",
"|  c #E8B98C",
" . c #E6B492",
".. c #E8B695",
"X. c #E6BC92",
"o. c #E8B996",
"O. c #E5BE99",
"+. c #E8BC99",
"@. c #DFC099",
"#. c #EEC684",
"$. c #EDC38B",
"%. c #F1CC82",
"&. c #F0D48B",
"*. c #E7C093",
"=. c #E8C295",
"-. c #EECA90",
";. c #E3C39C",
":. c #E9C49D",
">. c #E9C99D",
",. c #EDD196",
"<. c #E3C7A0",
"1. c #E9C6A0",
"2. c #E6CBA3",
"3. c #E9CCA3",
"4. c #EAD1A7",
"5. c #EAD4AA",
/* pixels */
">.=.m ) ..1.4.>.>.:.` o.5.4.>.} ) 1.5.3.u y ..4.5.5.5.3.3.5.3.>.",
") `  ...1.3.} m ) ) | +.>.=.) { +.1.5.4.u y  .+.5.5.5.5.5.4.| m ",
"......:.5.} ` .... .o.>.m m  .:.1.+.4.4.u y  .+.5.5.5.5.5.5.+. .",
"o.:.:.:.=.| ..:.1.:.:.+.m | :.3.3.+.( / s s  .| +.:.3.3.3.3.:.:.",
"3.3.*.} ` { 1.:.+.X.X.] :.3.5.;.! ~ E s  ... .) ) ..1.1.1.1.3.3.",
"5.>.b m ..:.=.` ) ) ] :.<.! ! E T R _ o.%.U %.o.| { } X.} 3.5.3.",
"| ] )  .1.3.} X.2.1.1.2.W R T _ ..#.U I 7 4 7 I I B ) { ) ] } | ",
"`  .3.:.] ] $.3.5.4.W T ~ .... .) l 1 1 o   o 1 2 N 1.3.3. .{ ) ",
"o.:.3.=.v b =.5.4.<.u u  .....) b -     X X X     r 5.5.5.1...+.",
"3.>.` ` ..O.3.2.W p ~ _ ..{ m | P 1 X = r v g O   5 &.5.5.4.3.3.",
"4.:.b m :.2.! i E  .1.+...] m $.b & m >.3.>.) v > o z 1.4.1.1.3.",
"| { m m $.V v M ' [ [ C x N $.-.t X k <.4.5.3.O.n   d { ..1.1.+.",
") ) O.N 4 % $ % $ $ $ $ $ $ % % #   0 p / ( <.5.) . > ) { { { ) ",
"..+.5.%.A A A A A A A A A A A A < X a _ u 8 p 4.{ . d ..) v n { ",
"o.O./ B D D D D S S D S S D D D 1 X _ O.T i R ( ) . f :.{ ) ) +.",
"1.:.8 ; # # # # # # # # # # # # * X ] 5.1.1.~ T ) . n 5.1.:.1.4.",
"3.( y +     X X             X o   . v X.4.4.{ R Q   v 5.5.5.5.3.",
"4.( 8 9 :   X X a ) k 0 a k m ` > . f ` | } O.W e   0 W W ;.5.3.",
"5.;.8 i a     j 2.5.2.i ..2.5.5.v o c I b M ,.I 5 o w Q E R ;.1.",
"5.( y i r   o ` 1.:.<.i ..1.5.=.) : * 1 J L K 1 * w =.4.O.s @.3.",
"4.( y T g o = { 1.+.1.i  .:.5.*.) q   o G H F o   f 5.5.:.s ( 2.",
"i T _ / ) b } 4.3.3.1.i X.4.5.X.) q   . & & & = o z 3.3.3.O.T i ",
"_  ..._ | 3.3.5.1.:.<.i O.4.>.| { h : : - : w ` n m ) ) =.3.O._ ",
") ....{  .4.3.<.( ( / s  .=.m ` :.3.:.:.:.:.>.:.{ ` _ ) ] 1.+...",
"{ { ` { =.5.;.E s s T  .*.=.b ) 3.3...] { { { ] ] ] } ] +.+...{ ",
"b g v [ 5.5.R E ......5.5.=.v ` 1.:.m v v v v ` 3.5.5.5.:.o...m ",
"| X.} >.5.5.W E :.1.:.X.*.| )  .3.O.} } } } } *.1.1.1.1.| ` ) v ",
"4.4.5.;.W W E O.4.5.X.` ` } 1.3.4.} =.5.*.} } ] ) ) ) ) } *.X.} ",
"R R R E R E O.3.5.3.m ..1.:.} ] } | :.X.{ ` { { X.X.X.O.>.2.^ R ",
"Q ~ Q / 3.3.3.X.{ ] | 3.3.| ) { ` +.>.]  .+.:.O.R R R T R T Q Q ",
"5.3.4.5.=.C C { { { 3.5.:.m ..:.} C ` =.4.;.p s Q ~ _ ~ ~ _ ..3.",
"5.5.5.5.*.z v { o.o.4.5.>.` ..>.} z b >.5.2.8 u ............O.3."
};
