/* XPM */
static char *keys[] = {
/* columns rows colors chars-per-pixel */
"64 64 113 2 ",
"   c #D77643",
".  c #DA7B43",
"X  c #D27C4E",
"o  c #D97E4D",
"O  c #CF7C52",
"+  c #FDAE35",
"@  c #DC8346",
"#  c #DE8A48",
"$  c #CF8E5D",
"%  c #DA8552",
"&  c #DB8A54",
"*  c #D4865C",
"=  c #DB8758",
"-  c #DC8D5D",
";  c #DE905D",
":  c #E1934B",
">  c #E29B5D",
",  c #EAA145",
"<  c #E6A34F",
"1  c #FAB741",
"2  c #FDBD40",
"3  c #E8A750",
"4  c #EEB252",
"5  c #EEBD5D",
"6  c #F7B355",
"7  c #F0BE56",
"8  c #F7BA5A",
"9  c #C28569",
"0  c #C68A6D",
"q  c #DD8E62",
"w  c #D59664",
"e  c #DD9162",
"r  c #DD9568",
"t  c #DE9A6B",
"y  c #C78E70",
"u  c #CA8F72",
"i  c #CB9174",
"p  c #CB9778",
"a  c #CD9C7C",
"s  c #D39B7D",
"d  c #E19966",
"f  c #E0976D",
"g  c #E19A68",
"h  c #E19E73",
"j  c #DCAF66",
"k  c #D0A07F",
"l  c #D8A07F",
"z  c #EAA864",
"x  c #E3A26E",
"c  c #EAB46E",
"v  c #E4A672",
"b  c #E5A976",
"n  c #E3A47E",
"m  c #E5AB7C",
"M  c #E8BF74",
"N  c #E5B17F",
"B  c #EAB27C",
"V  c #EBBA7B",
"C  c #FDCF4E",
"Z  c #F3C758",
"A  c #F5CD5A",
"S  c #F6D15B",
"D  c #FBDE5E",
"F  c #F1C462",
"G  c #F4CD66",
"H  c #F3CD69",
"J  c #F7D566",
"K  c #F6D06B",
"L  c #F9DD6D",
"P  c #F2CF71",
"I  c #F1CC7F",
"U  c #F8DA70",
"Y  c #FEE861",
"T  c #F8E276",
"R  c #F6E07E",
"E  c #F8E278",
"W  c #D69F80",
"Q  c #D5A383",
"!  c #DAA586",
"~  c #D4A987",
"^  c #DCA788",
"/  c #D7AE8A",
"(  c #DDAA8A",
")  c #D8B08D",
"_  c #DAB591",
"`  c #DDBA95",
"'  c #E4A681",
"]  c #E6AE83",
"[  c #E0AC8C",
"{  c #E6B385",
"}  c #EDB580",
"|  c #E7B28B",
" . c #E7BB8C",
".. c #E6B491",
"X. c #E8B796",
"o. c #E6BD92",
"O. c #E8B996",
"+. c #E8BD9A",
"@. c #ECC18B",
"#. c #EECA8F",
"$. c #E6C195",
"%. c #E8C395",
"&. c #EAC896",
"*. c #E1C39C",
"=. c #E9C39C",
"-. c #E9CA9E",
";. c #ECD29E",
":. c #F0DA95",
">. c #E9C6A0",
",. c #E5CAA2",
"<. c #E9CCA3",
"1. c #EAD0A6",
"2. c #EAD4AA",
/* pixels */
"2.2.2.&.v v v | X.X.O.2.2.2.2.2.2.2.2.2.m v X.+.2.2.2.2.2.2.2.b v O.+.2.2.2.2.2.p 9 9 y X.+.2.2.2.2.2.2.2.2.2.X.=.2.2.2.2.2.2.2.",
"<.-.<.$.b n b | X.O.O.2.2.<.-.<.-.<.<.-.m b X.+.2.2.2.1.<.-.<.m b X.+.2.2.2.2.2.p 9 9 0 X.+.<.1.2.2.2.2.2.2.2.O.>.2.2.2.<.<.<.<.",
"v v v m X.X.X.X.X.1.2.2.-.v v v v v v v ..O.X.+.2.2.2. .v v v X.O.X.+.2.2.2.2.2.p 9 9 0 X.X.X.>.2.2.2.2.2.2.2.2.2.2.2.2.{ v v v ",
"m ] m ] X.X.X.+.>.1.2.=.$.] m m m ] m ' O.O.=.=.%.&.&.| ] m ' +.=.X.+.<.2.2.2.2.p 9 9 0 X.X.X.>.2.2.2.2.2.2.2.2.2.2.2.2. .m m m ",
"X.X.X.X.X.X.X.<.2.2.1.v b X.X.X.X.X.X.X.O.O.2.-.v v v ] X.X.X.2.1.X.X.X.>.2.2.2.p 9 9 y X.X.X.>.2.2.2.2.2.2.2.2.2.2.2.2.=.X.X.X.",
"X.X.X.X.X.X.X.<.2.2.2.v b X.X.X.X.X.X.X.O.O.2.-.v v v { X.X.X.1.1.X.X.X.>.2.2.2.p 9 9 y X.X.X.=.2.2.2.2.2.2.2.2.2.2.2.2.=.O.X.X.",
"X.X.X.X.X.X.X.<.2.2.2.v m X.X.X.X.X.X.X.X.O.2.-.v v v ] X.X.X.2.1.X.X.X.>.2.2.2.p 9 9 0 X.X.O.>.2.2.2.2.2.2.2.2.2.2.2.2.>.X.X.X.",
"X.O.<.<.<.<.<.o.{ } { | ..<.<.<.<.<.<.<.<.<.{ { | | | +.<.<.<.2.2.<.<.<.` a W s ! ^ ' [ X...m m | { { =.=.=.=.+.=.>.+.+.>.<.<.<.",
"X.O.2.2.2.2.2.{ v v v X.+.2.2.2.2.2.2.2.2.2.v b X.X.X.>.2.2.2.2.2.2.2.2._ 9 9 9 [ X.X.X.X.| v v v v v | X.X.X.X.X.X.X.X.<.2.2.2.",
"1.2.2.&.b m m | ......X.+.2.&.m m m m m m m ..+.<.2.1.1.2.2.2.p u u y i s [ ..[ X.X.X.X.X.X...........<.2.1.1.1.1.1.2.1.2.2.+.O.",
"2.2.2.&.v v v | O.X.X.O.+.2.%.v v v v v v b X.+.2.2.1.2.2.2.2.0 9 9 9 0 s X.X.X.X.o.O.O.X.O.X.X.X.X.X.<.1.2.1.2.2.2.2.2.2.2.+.X.",
"2.2.2.&.v v v | X.X.O.2.-.v ] X.X.X.O.X.o.O.2.2.2._ 9 9 9 9 9 ..O.X.X.X.X.X.X.X.L Y Y Y Y U X.X.X.m v v v v v v v v ..2.2.2.2.2.",
"<.<.-.o.n b b ..+.+.+.2.-.v ] +.+.+.+.+.+.+.2.1.*./ u u u u u ..X.X.o.@. .@.@.@.G S S S S H @.@.@.V c b m b m n b b  .<.<.-.-.<.",
"v v v m X.X.O.<.2.2.2.2.-.v { 2.2.2.2.2.2.2.2.*.9 s X.X.X.X.X.X.X.X.@.Y Y Y Y Y :         : Y Y Y Y Y @.X.X.X.X.X.X.] v v v v v ",
"m m ] | =.=.=.%.&.%.%.%.%.{ &.2.2.2.2.2.` ` ` / p ^ X.X.X.X.X.| | | N 7 7 7 7 7 @         # 7 7 7 7 7 $.>.+.+.>.>.=...m m ] m m ",
"X.X.X.=.2.2.2.{ v v v v N 2.2.2.2.2.2.2.y 9 9 u X.X.X.X.X.X.X.n v v t   .                             $.2.2.2.2.2.2.>.X.X.O.X.O.",
"X.X.X.>.2.2.2.{ v v v v m 2.2.2.2.2.2.2.y 9 9 i X.X.X.X.X.X.X.b v v d                                 %.2.2.2.2.2.2.>.X.X.X.X.X.",
"X.X.O.+.2.2.2.{ v v v v { 2.2.2.2.2.2.2.y 9 9 i X.X.X.X.X.X.X.v v v d                                 +.2.2.2.2.2.2.<.O.X.X.X.X.",
"<.<.<.=.N { { | | | | =.-.2.2.2._ a a a ^ ( ( [ X.X.X.] m m m &.&.J 5           - d d d n f           H E 2.2.2.2.2.2.<.<.<.<.<.",
"2.2.2.&.v v v | X.X.X.2.2.2.2.2.~ 9 9 9 ..X.X.X.X.X.X.] v v v <.2.Y A           d v v b X.n   .       S Y 2.2.2.2.2.2.2.2.2.2.2.",
"2.2.2.=.v v v | X.1.1.2.=.y y u W ......<.<.O.X.X.X.X.] v v c 1.-.@ @   r <.=.-.<.1.<.-.b v l x x %   @ @ X.+.2.2.2.>.+.+.+.1.2.",
"2.1.2.%.v v x | X.1.2.1.*.0 9 0 W X.X.X.<.2.X.X...o.X.] b v v 1.<.      h 2.2.2.2.2.2.1.v b x v v &       ..O.2.2.2.>.X.X.X.1.2.",
"X.X.X.| v v v | X.1.2.9 u X.O.O.X.X.X.X.X.O.X...v v v %.2.2.2.2.-.      j 1.2.2.2.2.2.2.2.<.X.X.X.q       X.X.X.X.X.>.1.2.2.+.X.",
"| | | | b m b B B #.#.$ w B B B } } } } } } B B z z z V #.#.#.#.@.      r *.*.*.1.2.2.2.2.1.+.+.+.e       | | | ..X.>.<.1.<.....",
"v v v m X.X.X.6 + + + + + + + + + + + + + + + + + + + + + + + + +       X 9 9 9 *.2.2.2.2.2.2.2.2.g       v v v ] X.X.X.X.X.n v ",
"] ] ] | =.>.>.6 + + + + + + + + + + + + + + + + + + + + + + + + +       * p s p / _ _ _ _ +.2.2.2.g       ' ] ] ] ] | ] ] | ] m ",
"X.X.X.=.2.2.2.8 + + + + + + + + + + + + + + + + + + + + + + + + +       q X.X.X.u 9 9 9 9 a 2.2.2.f       X.X.X.| v v v v v | X.",
"O.X.X.+.2.2.2.K C C C C C C C C C C C C C C C C C C C C C C C C Z       f X.X.X.u 9 9 9 9 a 2.2.2.f       ..X.X.| v v v v v ..X.",
"X.X.X.=.2.2.2.E Y Y Y Y Y Y Y Y Y Y Y Y Y Y Y Y Y Y Y Y Y Y Y Y J       q X.X.X.u 9 9 9 9 a 2.2.2.d       X.X.X.| v v v v v ..X.",
"O.O.<.` p a a 4 2 2 2 2 2 2 C + 2 2 2 2 2 2 2 2 + C 2 2 2 2 2 2 2       f <.<.<...[ ( ( ( ^ a ) 2.f     . >.<.<.>.| | | | | >.<.",
"X.O.2.` 9 9 9 , + + + + + + + + + + + + + + + + + + + + + + + + +       v 2.2.2.+.X.X.X.o.^ 9 ~ 1.t       1.2.2.<.X.X.X.X.X.1.2.",
"2.2.2.` 9 9 9 X . . . . . . . . . . . . . . . . . . . . . . . . .       t 2.2.2.1.2.1.<.X.[ 9 ~ 2.f       1.2.2.2.2.1.2.1.2.2.2.",
"2.2.1.` 9 9 9 X                                                         f 1.1.1.2.2.2.1.o.^ 9 ~ 2.r       1.2.2.2.2.2.2.2.2.2.2.",
"X.O.2.` 9 9 9 X                                                         & v v v -.2.2.1.X.( 9 ~ 2.t       1.2.2.2.2.2.2.2.2.O.o.",
"+.>.2.` 9 9 9 * & .             % - q - q - X X = = = - - - d - -       - b m b $.-.-.-.+...i ~ *.e       ` *.+.*.*.*.2.2.2.>.+.",
"2.2.2.` 9 9 9 ^ X.o             m 2.2.2.2.<.9 i X.X.X.>.2.2.2.2.,.      f O.X.O.b v v b 2.<.X.W 9 X       9 9 9 9 9 / 2.2.2.2.2.",
"2.2.2.` 9 9 9 ^ X.o         % l o.2.2.2.2.1.9 u X.O.>.<.2.2.2.2.-.      > I I I b v v N 2.;.#.M j &       s s s W p ~ ) ,.2.<.>.",
"2.2.2.` 9 9 9 ^ X.o         e 2.2.2.2.2.2.1.9 i X.>.2.2.2.2.2.2.<.      < Y Y Y c v v b 2.:.Y Y Y <       ..X.X.X.X.W 9 ` 2.O.X.",
"2.2.2.` 9 9 9 ^ X.o         t 2.>.>.=.=.2.<.9 u X.+.>.<.2.2.2. .{ h f   # < < < F H H K E H < < < @   l N -.-.>.=.X.W 9 ` 2.<.<.",
"2.2.1.` 9 9 9 ^ X.%         t 2.>.X.X.X.2.1.9 u X.X.X.>.2.2.2.b v O.n           A Y Y Y Y Z           $.2.2.2.2.<.X.W 9 ` 2.2.2.",
"2.2.2.` 9 9 9 ^ X.o         t 2.>.X.X.X.2.1.9 y X.X.X.<.2.2.2.b b X.'           A Y Y Y Y Z           $.2.2.2.2.<.X.W 9 ` 2.2.2.",
"2.2.2.` 9 9 9 ^ X.o         t 2.>.X.X.X.1.1.9 u X.X.X.>.2.2.2.b v X.'           A Y Y Y Y Z           $.2.2.2.2.>.X.W 9 ` 2.2.2.",
"9 9 y p ....X.X.X.v v v m 1.1.2.1.2.2.2.2.1.9 i X.=.2.2.2.2.2.b b X.'           . . . . . .           $.2.2.2.2.2.2.>.X.p 0 0 0 ",
"y y 0 s X.X.X.X...m b b { 2.2.2.1.1.1.1.2.1.9 u X.=.2.2.2.2.2.b v X.'                       o o . o o  .1.1.1.<.1.2.>.X.W 0 0 0 ",
"X.X.X.X.X.X.X.' v <.2.2.2.2.2.2.=.X.X.X.1.,.9 i X.=.2.2.2.2.2.b n O.'                     - O.| v v v v v v v v { 2.2.2.+.X.X.X.",
"[ ..X.X.X.X.X.m v ,.2.<.<.2.2.2.<.=.=.+.2.1.9 i X.=.2.<.-.-.&.m m =.| e e e e - e e e e q t +.| m m m m m ' m m { -.<.2.+.X.X.X.",
"v b X.X.X.X.X.m v <.2.X.+.2.2.2.2.2.2.2.2.1.9 i X.=.2...v v v X.O.2.2.2.2.2.2.2.2.2.2.2.2.2.2.>.X.X.X.X.X.X.X.X.| v o.2.>.X.X.X.",
"] ] X.X.X.X.X.m n <.2.>.>.2.,.) ) ) / ) / / W W { $.2.} v v b ..O.2.2.2.1.>.>.<.<.<.>.>.>.>.<.o.] | ] ] ] { ] ] {  .+.>.+.X.X.X.",
"X.X.X.X.X.X.X.m v <.2.2.2.2._ 9 9 9 9 9 9 0 X.| v | 2. .v v v ..+.2.2.2.<.O.O.O.X.X.O.O.X.X.X.{ v v v v v v v v { 2.=.X.X.X.X.X.",
"] ] ] m m m ' o.&.1.2.2.,.Q Q ^ ! ! ! ! ! ! <.>.%.-.2. .v v v ..X.2.1.=...] m m m m ] m ' m ] { $.$.%.%.%.&.%.%.=.=.+.X.O.X.] ] ",
"v v v v v v v -.2.2.2.2.*.9 p X.X.X.X.X.X.X.2.2.2.2.2. .v v v X.+.2.<.X.{ v v v v v v v v v v  .2.2.2.2.2.2.2.2.<.X.X.X.X.X.b v ",
"v v v v v v v &.2.2.2.2.*.9 s X.X.X.X.X.X.X.2.2.2.2.2.{ v v v ..X.2.<.X.] v v v v v v v v v v  .2.2.2.2.2.2.2.2.<.X.X.X.X.X.b v ",
"v v v v v v v &.2.2.2.2.*.9 s X.X.X.X.X.X.X.2.2.2.2.2...v v v ..+.2.<.X.{ v v x v v v v v v v  .2.2.2.2.2.2.2.2.<.X.X.o.X.X.b v ",
"1.1.2.2.2.1.2.2.2.2.2.2.*.9 p X.>.2.2.2.2.2.b v v b v ] X.o.X.1.2.2.=.v  .2.2.2.2.2.1.2.2.2.2.-.O.O.O.O.O.O.O.O.| v v v v v v v ",
"2.2.2.2.2.2.2.<.,.,.,.,.` u W O.<.2.2.2.<.<.v b b b b | +.+.+.1.2.2.-.v { 2.2.2.1.<.<.<.1.-.<.*.................| m m m m m m m ",
"2.2.2.2.2.2.2.s 9 9 9 9 u X.=.2.2.2.2.2.b v X.X.O.O.O.<.2.2.2.2.2.2.-.v  .2.2.2.N v v v v v x v b v v v v v v v } 2.2.2.2.2.2.2.",
"` ` ` ` ` ` ` Q p i p p s +.>.2.2.2.2.2.b b X.+.+.=.+.&.=.&.=.&.&.&.+.m o.2.-.&.{ m m m m ' m ] { { { { { { { { o.2.2.2.*.` ` ` ",
"9 9 9 9 0 9 9 ^ X.X.X.X.+.2.2.2.2.2.2.2.b b X.+.2.2.2. .v v v v v v m X.=.2.| v ..X.X.X.O.O.X.>.2.2.2.2.2.2.2.2.2.2.2.2.Q 9 9 9 ",
"W W s W W W s o.>.>.>.>.<.2.<.o.o.o.o.o.{ ] =.<.2.<.o.{ ] ] ] ] ] ] | >.<.2. .v | X.X.O.>.>.>.O./ / / / / / / / / / / / Q W k s ",
"X.X.X.X.X.X.O.<.2.2.2.2.2.2.%.v v v v v ..O.2.2.2.%.v ] X.X.X.X.X.X.+.2.2.2.{ v ..X.X.+.2.2.2./ 9 9 9 9 9 9 9 9 9 9 9 9 ! O.O.O.",
"<.<.<.<.<.<.<.1.2. .{ { } | { | | | ] | >.<.2.2.2.%.v ] X.X.X.<.<.m N { { { @.-.,.<.<.>.a W W Q ^ ^ ! ^ ^ ! ! ^ ! ^ ^ ^ ..X.>.<.",
"2.2.2.1.2.2.2.2.2.m v v v v m X.X.X.X.X.2.2.2.2.2.%.v ] X.X.X.1.1.v v v b v $.2.2.2.2.,.9 9 9 W O.O.o...X.X.X.X.X.X.X.X.X.X.<.2.",
"2.2.2.2.2.2.2.2.2.N v v v v ] X.X.X.X.X.1.2.2.2.2.%.v | X.X.O.1.1.x v v v v $.2.2.2.2.,.9 9 9 s X.X.X.X.X.X.X.X.X.X.X.X.X.X.1.2.",
"2.2.2.2.2.2.2.2.2.b v v v v m X.X.X.X.X.1.2.2.2.2.%.v ] X.O.O.2.1.v v v v x $.2.2.2.2.,.9 9 9 s X.X.X.X.X.X.X.X.X.X.X.X.X.X.1.2."
};
