/* XPM */
static char *player[] = {
/* columns rows colors chars-per-pixel */
"64 64 176 2 ",
"   c #3D343F",
".  c #48323F",
"X  c #44313F",
"o  c #51333E",
"O  c #66373B",
"+  c #6B383A",
"@  c #7D3C38",
"#  c #733A39",
"$  c #61403A",
"%  c #4A682C",
"&  c #536E33",
"*  c #252B43",
"=  c #2D2D42",
"-  c #322E41",
";  c #392F41",
":  c #2B324D",
">  c #2F3754",
",  c #553F48",
"<  c #3A4467",
"1  c #714748",
"2  c #404869",
"3  c #4E516C",
"4  c #5D5B60",
"5  c #69626C",
"6  c #7E6B69",
"7  c #6C6675",
"8  c #6C6D7A",
"9  c #716876",
"0  c #853D37",
"q  c #813C38",
"w  c #86582E",
"e  c #854D34",
"r  c #974135",
"t  c #9C4134",
"y  c #8B5B32",
"u  c #A2582F",
"i  c #AC4532",
"p  c #A34333",
"a  c #B34632",
"s  c #BF4830",
"d  c #98643C",
"f  c #BE622B",
"g  c #CF552C",
"h  c #C6532D",
"j  c #D45A2B",
"k  c #D95D2A",
"l  c #C14B31",
"z  c #C45539",
"x  c #C5583E",
"c  c #CE5C36",
"v  c #C7652A",
"b  c #CC6729",
"n  c #DE6128",
"m  c #D96B27",
"M  c #D7683A",
"N  c #E26527",
"B  c #EC6D25",
"V  c #E06328",
"C  c #EB7224",
"Z  c #F77622",
"A  c #F67C2C",
"S  c #E06E38",
"D  c #F57F33",
"F  c #E67B38",
"G  c #97564A",
"H  c #AA704A",
"J  c #BF7E4D",
"K  c #AF6F55",
"L  c #936F68",
"P  c #88716C",
"I  c #9D776E",
"U  c #89777A",
"Y  c #8A797C",
"T  c #867272",
"R  c #997B72",
"E  c #CA694D",
"W  c #CC6844",
"Q  c #D6774A",
"!  c #CC6B50",
"~  c #C16E54",
"^  c #CC7254",
"/  c #C37257",
"(  c #D17650",
")  c #D37D58",
"_  c #D37E62",
"`  c #6F8149",
"'  c #F48A3F",
"]  c #F38338",
"[  c #B08057",
"{  c #928B6C",
"}  c #AA846E",
"|  c #AB917E",
" . c #A68B7C",
".. c #AFAC7C",
"X. c #B4AF7F",
"o. c #D5815C",
"O. c #F38740",
"+. c #F38D45",
"@. c #F3944D",
"#. c #C28569",
"$. c #C68A6E",
"%. c #D28363",
"&. c #D78B64",
"*. c #D48B6B",
"=. c #D88B66",
"-. c #DC9467",
";. c #CA8F72",
":. c #C78E70",
">. c #D98E70",
",. c #CC9476",
"<. c #CB9778",
"1. c #CE9C7C",
"2. c #D99975",
"3. c #D39C7E",
"4. c #DA9877",
"5. c #DBA17D",
"6. c #D0A07F",
"7. c #E4A672",
"8. c #E5AB7C",
"9. c #E4A67C",
"0. c #3192B7",
"q. c #7A8C94",
"w. c #1B8DC3",
"e. c #0798D7",
"r. c #0199DC",
"t. c #1E95C9",
"y. c #219BCD",
"u. c #209CD0",
"i. c #21A1D5",
"p. c #8A8B8A",
"a. c #938483",
"s. c #AC8F84",
"d. c #AC9086",
"f. c #AD9489",
"g. c #B7B182",
"h. c #AEA393",
"j. c #BFAD9B",
"k. c #BAB2A4",
"l. c #D69F80",
"z. c #D5A484",
"x. c #DBA686",
"c. c #DCA788",
"v. c #D6AD8A",
"b. c #DEAC8B",
"n. c #DBB28D",
"m. c #DCB292",
"M. c #DDBA95",
"N. c #C0B789",
"B. c #E0A182",
"V. c #E6AE82",
"C. c #E5AD87",
"Z. c #E6B485",
"A. c #E7B28B",
"S. c #E9B18B",
"D. c #E7BB8C",
"F. c #E7B591",
"G. c #E8B796",
"H. c #E5BC92",
"J. c #E8B896",
"K. c #E8BD9A",
"L. c #B6C5B3",
"P. c #CDC093",
"I. c #D6C69B",
"U. c #EDC18F",
"Y. c #E8C395",
"T. c #E2C39C",
"R. c #E9C29C",
"E. c #E9CB9E",
"W. c #E7C192",
"Q. c #D9D0AE",
"!. c #CECAAB",
"~. c #E9C6A0",
"^. c #E5CAA2",
"/. c #E9CBA3",
"(. c #EAD0A7",
"). c #EAD4AA",
/* pixels */
").).).Y.7.7.7.A.J.J.J.).).).).).).).).).9.7.G.K.).).).).).).).8.7.J.K.).).).).).<.#.#.;.G.K.).).).).).).).).).G.K.).).).).).).).",
"/.E./.Y.9.9.9.A.G.K.K.).).E.E./.E././.E.8.9.G.K.).).).(.E.E./.8.9.J.K.).).).).).<.#.#.$.G.K./.).).).).).).).(.K.~.).).).(.^./.E.",
"7.7.7.8.G.G.G.G.G.(.).).E.7.7.7.7.7.7.7.J.G.G.K.).).).D.7.7.7.G.J.J.Y.).).).).).<.#.#.$.G.G.G.~.).).).).).).).).).).).).Z.9.7.7.",
"8.V.8.Z.G.G.G.K.R.(.).Y.W.V.8.8.V.9.V.V.D.G.d.f.h.h.h.| } } } s.d.d.f.h.h.h.h.h.R L L I G.G.G.~.).).).).).).).).).).).).D.8.8.8.",
"G.G.G.G.G.G.G./.).).(.7.9.J.J.G.G.G.G.G.G.m.< < < < < < < < < < < < < < < < < < < < < 3 G.G.J.~.).).).).).).).).).).).).R.J.J.J.",
"G.G.G.G.G.G.G./.).).).7.8.J.G.G.G.G.G.G.G.F.< < < < < < < < < < < < < < < < < < < < < 3 G.G.J.R.).).).).).).).).).).).).R.J.G.G.",
"G.G.G.G.G.G.G./.).).(.7.9.G.G.G.G.G.G.G.G.m.< < < < < < < < < < < < < < < < < < < < < 3 G.G.J.~.).).).).).).).).).).).).R.G.G.G.",
"G.J./././././.H.Z.Z.Z.S.D./././././.a.9 9 7 < < < < < < < < < < < < < < < < < < < < < 2 9 9 9  .Z.Z.Z.R.R.R.K.R.R.R.R.K.~./././.",
"G.Y.).).).).).Z.7.7.7.G.J.).).).).).8 < < < < < < < < < < < < < < < < < < < < < < < < < < < < P 7.7.7.D.G.G.J.J.G.G.G.G./.).).).",
"(.).).Y.8.8.8.A.G.D.G.G.K.).Y.8.8.9.5 < < < < < < < < < < < < < < < < < < < < < < < < < < < < U F.F.F./.(.(.(.(.)./.)./.).).K.J.",
").).).Y.7.7.7.A.G.G.G.G.R.).Y.7.9.7.5 < < < < < < < < < < < < < < < < < < < < < < < < < < < < Y G.G.G.E.(.).).).).).).).).).K.J.",
").).).Y.7.7.7.A.G.G.G.).E.7.8.J.G.G.7 < < < < < < < < < < < < < < < < < < < < < < < < < < < < U G.8.7.7.7.7.7.7.7.7.D.).).).).).",
"/.E.E.Y.9.9.8.D.K.R.R.).E.7.V.K.K.K.7 < < < < < < < < < < < < < < < < < < < < < < < < < < < < U A.V.9.9.9.9.8.9.9.9.D.E././.E.E.",
"7.7.7.9.G.G.J./.).).).).E.7.Z.).).).8 < < < < < < < < < < < < < < < < < < < < < < < < < < < < P 7.S.J.J.G.G.J.J.J.G.Z.9.7.7.7.7.",
"V.8.8.A.R.R.R.Y.Y.Y.Y.Y.Y.Z.Y.).).).9 < < < < < < < < < < < < < < < < < < < < < < < < < < < < U 8.J.R.R.R.R.R.R.Y.R.F.8.8.V.V.8.",
"J.J.J.R.).).).Z.7.7.7.7.8.).).).).).8 < < < < < < < < < < < < < < < < < < < < < < < < < < < < Y G./.).).).).).).).).~.G.G.G.G.G.",
"G.G.G.R.).).).Z.7.7.7.7.8.).).).).).5 > > > < < < < < < < < < < < < < < < < < < < < < < > > > T G./.).).).).).).).).~.J.G.G.G.G.",
"G.G.J.R.).).).Z.7.7.7.7.8.).).).).).4 * * * < < < < < < < < < < < < < < < < < < < < < < * * * 6 G./.).).).).).).).).~.J.G.G.G.G.",
"/././.R.8.Z.8.A.A.A.A.E./.).n.^ ^ ! , * * * : : : : : = : : : : : : : : : : * : * : : : * * * 1 E ! ! Y.).).).).).).)./././././.",
").).).R.7.7.7.A.G.G.G.).).).5.s s s o * * * * * * * * * * * * * * * * * * * * * * * * * * * * + s s s F.).).).).).).).).).).).).",
").).).Y.7.7.7.D.G./.).).T.:./ s s s o * * * * * * * * * * * * * * * * * * * * * * * * * * * * + s s s B.K.K.K.).).).~.K.K.K./.).",
").).).Y.7.7.7.A.G.).)./.K.$.~ s s s o * * * * * * * * * * * * * * * * * * * * * * * * * * * * + s s s B.J.J.J.).).).~.J.K.G./.).",
"G.G.G.S.7.7.7.A.G./.).%.;.G.>.s s s o * * * * * * * * * * * * * * * * * * * * * * * * * * * * + s s s B.J.G.G.G.G.G.~.).).).K.J.",
"A.A.A.Z.8.8.9.D.K.).).} ;.G.>.s s s o * * * . . . . . . . . . . . . . . . . . . X X   , * * * + s s s 4.F.A.A.F.F.G.~./././.G.F.",
"7.7.7.8.G.G.G./.).).).} ;.G.>.s s s o * * = l s s s s s s s s s s s s s s s s s s s s i * * * + l l l -.7.7.7.7.V.G.G.G.G.G.9.7.",
"V.V.V.A.~.~.K.M.m.m.n.4.l.G.>.s s s o * * = s s s s s s s s s s s s s s s s s s s s s i * * * + l l l 2.V.V.V.V.V.C.S.C.C.Z.V.8.",
"G.G.G.R.).).).1.#.#.$.J.G.G.>.l l l o * * = s s l l s s s s s s s s s s s s s s s s s a * * * O s s s l.G.G.G.G.A.7.7.7.7.7.G.G.",
"G.G.G.R.).).).1.#.#.#.G.G.G.9.) =.2.G $ @ q s s l 0 O O + a s s s s s s 0 + O O i s s a @ @ @ K 4.>.4.A.G.G.G.G.A.7.7.7.7.7.D.G.",
"G.G.G.~.).).).l.#.#.#.G.G.G.S.7.D.).! s s s s s l 0 * * * 0 s s s s s s 0 * * * t s s s s s l %.(.).).K.G.G.G.J.A.7.7.7.7.7.F.G.",
"G.J./.M.1.<.<.x.b.b.C.G.C.O.] ] O.+.c l s s s s l 0 * *   p s s s s s s 0 * * * t s s s s s s M +.+.+.O.O./././.R.A.A.F.S.A.~./.",
"G.J.).M.#.#.#.c.G.G.G.G.9.Z Z Z Z Z j l s s s s s 0 * * * 0 s s s s s s q * * * t s s s s s l k Z Z Z Z Z ).).)./.G.G.G.G.G./.).",
").).).M.#.#.#.c.G.G.G.A A Z Z Z Z Z j l s s s s s 0 * * * 0 s s s s s s q * * * t s s s s s l k Z Z Z Z Z A O.).).)./.).).).).).",
").)./.M.#.#.#.c.G.S.V.Z Z Z Z Z Z Z h i a a s s s 0 - -   0 s s s s s s q - - - 0 l l l a a p j Z Z Z Z Z Z ] Y.E.).).).).).).(.",
"G.K.).M.#.#.#.c.G.D Z Z Z Z Z Z Z Z o * * = s s s s s s l s s s s s s s s s s s s s l a *     e Z Z Z Z Z Z Z Z @.).).).).).K.H.",
"K.~.).M.#.#.#.c.G.D Z Z Z Z Z Z Z Z o   * = s s s s s s s s l s s s s s s s s s s s s i * * * r Z Z Z Z Z Z Z Z +.T.E.).).).R.K.",
").).).M.#.#.#.c.G.D Z Z Z Z Z Z Z Z O * * = s s s s s s s s l l s s s s s s s s s s s p * * * $ Z Z Z Z Z Z Z Z F #.v.).).).).).",
").).).M.#.#.#.c.G.S N Z Z Z Z Z Z Z $   * = @ @ q q @ p l ^ %.*.%.%.%.%.E s 0 0 # @ @ O * *   e Z Z Z Z Z Z Z n Q 3.z.v.^.).^.~.",
").).).M.#.#.#.x.G.x l Z Z Z Z Z Z Z $ * * * * * * * * @ a A.).).).).).).>.l O = * *   * * * * e Z Z Z Z Z Z C s E G.l.#.M.).K.G.",
").).).M.#.#.#.x.G.x l j j j j j B Z $ * * * * * * * * @ s ^ ) ) %._ _ _ E s O * * * * * * * * $ Z V j j j j j s E G.l.#.M.)././.",
").)./.M.#.#.#.x.G.x l l s l l s n C $ * * * * * * * * @ s s a s s s s s s s O * * * * * * *   e Z j s s s s s s ! G.l.#.M.).).).",
").).).M.#.#.#.x.G.x s s s s s s n Z b v v v v u * * *       X X , ; ,     X   * * * a v v v v m Z j s s s s s s ! G.l.#.M.).).).",
").).).M.#.#.#.c.G.x s s s s s s n Z Z Z Z Z Z v * * * * * * * * * * * * * * * * * * C Z Z Z Z Z Z j s s s s s s ! G.l.#.M.).).).",
"$.#.:.<.F.G.F.G.G.x s s s s s s n Z Z Z Z Z Z v * * *   * * * * * * * * * * *   *   C Z Z Z Z Z Z j s s s s s s ( ).~.F.<.$.$.$.",
":.:.$.3.G.G.G.F.D.x s s s s s s n Z Z Z Z Z Z b                                     C Z Z Z Z Z Z j s s s s s s ^ ).~.K.l.$.$.$.",
"G.G.G.G.G.G.G.B.7.z l s s s s s n Z Z Z Z Z Z Z Z Z Z Z Z Z Z Z B Z Z Z Z Z Z Z C C Z Z Z Z Z Z Z j s s s s s s ^ ).).).K.G.G.G.",
"A.A.G.G.G.G.G.8.7.z s s s s s s n Z Z Z Z Z Z Z Z Z Z Z Z Z Z Z Z Z Z Z Z Z Z Z Z Z Z Z Z Z Z Z Z j s s s s s s ^ R./.).R.G.G.G.",
"7.9.G.G.G.G.G.V.7.z s s s s s s n Z Z Z Z Z Z Z Z Z Z Z Z Z Z Z Z Z Z Z Z Z Z Z Z Z Z Z Z Z Z Z Z j s s s s s s W 7.H.).R.G.G.G.",
"V.S.G.G.G.G.G.8.7.*.%.s s s s s n Z Z Z Z Z Z Z Z Z Z Z Z Z Z Z Z Z Z Z Z Z Z Z Z Z Z Z Z Z Z Z Z j s s s s l ( &.D.K.~.K.G.G.G.",
"G.G.G.G.J.G.G.8.7./.(.s s l l l N Z Z Z Z Z Z Z Z Z Z Z Z Z Z Z Z Z Z Z Z Z Z Z Z Z Z Z Z Z Z Z Z g s s l l z 7.Z.).~.J.G.G.G.G.",
"8.V.V.8.Z.8.8.D.Y.).).5.2.K W N C Z Z Z Z Z Z Z Z Z Z Z Z Z Z Z Z Z Z Z Z Z Z Z Z Z Z Z Z Z Z Z Z B N -.5.5.5.Y.R.R.J.G.G.G.V.V.",
"7.7.7.7.7.7.8.Y.).).).).T.#.Q Z Z Z Z Z Z Z Z Z Z Z Z Z Z Z Z Z Z Z Z Z Z Z Z Z Z Z Z Z Z Z Z Z Z Z Z U.).).).)./.G.G.G.J.J.9.7.",
"7.7.7.7.7.7.7.Y.).).).).T.#.a.0.0.0.[ Z Z Z Z Z Z Z Z Z Z Z Z Z Z Z Z Z Z Z Z Z Z Z Z Z Z Z Z { 0.0.0.!.).).).)./.G.G.G.J.J.9.7.",
"7.7.7.7.7.7.7.Y.).).).).T.#.q.r.e.e.[ Z Z Z Z ] Z Z Z Z Z Z Z Z Z Z Z Z Z Z Z Z Z Z Z Z Z Z Z { r.r.r.L.).).).)./.J.J.W.G.G.9.7.",
"(.).(.).).).).).).).).).T.#.q.r.e.e.e.e.e.e.e.e.e.e.e.e.e.e.e.Q.(.(.k.e.e.e.e.e.e.e.e.e.e.e.e.r.r.r.r.k.J.J.G.G.A.7.7.7.7.7.7.7.",
").).).).).).).^.^.^.^.^.M.:.p.t.w.w.w.w.w.w.w.w.w.w.w.w.w.y.i.Q.).).L.i.w.w.w.w.w.w.w.w.w.w.w.w.w.w.w.j.G.F.F.F.A.8.8.8.7.8.8.8.",
").).).).).).).1.%.} #.#.;.K.>.s s s s s s s s s s s s s s 8.(.).).).E.9.) s s s s s l l s s s s s s s -.7.7.7.7.Z.).).).).).).).",
"M.H.M.M.M.M.M.z.,.,.,.,.l.R.4.l s s s s s s s s s s s s l 5.Y.R.T.Y.W.8.o.l l s s s s s s s s s s s s 2.Z.Z.Z.A.U.).).).T.M.T.M.",
"#.#.#.#.#.#.#.x.G.G.G.G.K.).4.l s s s s s s s s s s s s l -.7.7.7.7.9.J.*.l s s s s s s s s s s s s s H.).).).).).).).).6.#.$.[ ",
"l.l.l.3.3.3.3.H.~.~.~.~./.).G.*.J w y $ w w w d *.%.( ) ) 9.V.V.Z.C.A.R.b.*.) ( %.*.y w w w w w w J *.z.v.v.v.v.v.v.v.v.x.3.l.l.",
"G.G.G.G.J.J.J./.).).).).).).).).{ % % % % % % ` ).Y.7.C.G.G.G.G.J.J.R.).).).Z.7.~.).& % % % % % % g.).<.#.#.#.#.#.#.#.#.x.G.G.G.",
"/././././././.).).D.Z.Z.Z.Z.Y.).M.g.g.g.X.g.g.N.).K.7.Z.G.G.G././.8.8.Z.Z.Z.H.Y.).).g.g.g.g.X.g.g.I.).v.x.x.c.x.x.x.x.x.F.G.~./.",
").).).).).).).).).8.7.7.7.7.A.).).).).).).).).).).Y.7.C.G.G.G.(.(.7.7.7.7.7.Y.).).).).).(.).(.).(.).).K.G.G.G.G.G.G.G.G.G.G./.).",
").).).).).).).).).8.7.7.7.7.Z.J.K.K.K.J.).).).).).W.7.V.G.G.J.).(.7.7.7.7.7.Y.).).).)./.,.;.,.x.K.K.K.J.G.G.G.G.G.G.G.G.G.G./.).",
").).).).).).).).).8.7.7.7.7.8.J.G.G.G.K./.).).).).W.7.S.G.G.J.(.(.7.7.7.7.7.Y.).).).)./.#.#.} l.G.G.G.G.G.G.G.G.G.G.G.G.G.G.).)."
};
