/* XPM */
static char *player_resized[] = {
/* columns rows colors chars-per-pixel */
"32 32 186 2 ",
"   c #3D303F",
".  c #402F3F",
"X  c #44333F",
"o  c #4B343E",
"O  c #51333D",
"+  c #5A353C",
"@  c #583C3B",
"#  c #64373B",
"$  c #753A39",
"%  c #7A3B38",
"&  c #7A3A37",
"*  c #60403A",
"=  c #6C4538",
"-  c #786535",
";  c #746336",
":  c #242B43",
">  c #2D2D42",
",  c #292F49",
"<  c #332E41",
"1  c #2A314B",
"2  c #343041",
"3  c #3F3241",
"4  c #413140",
"5  c #493844",
"6  c #543A44",
"7  c #374164",
"8  c #3A4467",
"9  c #3B4568",
"0  c #734745",
"q  c #454C6A",
"w  c #484C69",
"e  c #5A586B",
"r  c #615660",
"t  c #6B626F",
"y  c #626173",
"u  c #6C6471",
"i  c #666C7F",
"p  c #686B7D",
"a  c #8E3F36",
"s  c #903F36",
"d  c #944035",
"f  c #9C4235",
"g  c #984B33",
"h  c #884436",
"j  c #B5442F",
"k  c #BD472D",
"l  c #BE482D",
"z  c #AC5B2E",
"x  c #A24334",
"c  c #AC4532",
"v  c #B44631",
"b  c #BB4730",
"n  c #BE4830",
"m  c #B64832",
"M  c #AF513E",
"N  c #B65B2D",
"B  c #FB751F",
"V  c #F7741F",
"C  c #C24B2F",
"Z  c #CE552D",
"A  c #D1572C",
"S  c #C14A31",
"D  c #C55B3D",
"F  c #C65031",
"G  c #D05C31",
"H  c #CF6829",
"J  c #D66A27",
"K  c #DC6827",
"L  c #D8713A",
"P  c #E36627",
"I  c #E46D25",
"U  c #E76826",
"Y  c #F16E21",
"T  c #E67025",
"R  c #EB7124",
"E  c #F67522",
"W  c #F97722",
"Q  c #E17932",
"!  c #B85943",
"~  c #866F40",
"^  c #9F7F52",
"/  c #93764A",
"(  c #BC6149",
")  c #BE6B51",
"_  c #AC7F6F",
"`  c #C55A40",
"'  c #C56549",
"]  c #D1704F",
"[  c #C16D53",
"{  c #CD6E53",
"}  c #CF7153",
"|  c #CB7659",
" . c #D27958",
".. c #7E877D",
"X. c #7E887E",
"o. c #F3843C",
"O. c #97826C",
"+. c #80877C",
"@. c #92807F",
"#. c #A68172",
"$. c #AD9071",
"%. c #B99577",
"&. c #F38E46",
"*. c #ED9559",
"=. c #C48A6D",
"-. c #D68665",
";. c #D58568",
":. c #D68C6D",
">. c #DB8D66",
",. c #C98D70",
"<. c #CE997A",
"1. c #CC9677",
"2. c #DA9973",
"3. c #D19B7C",
"4. c #DB9D79",
"5. c #D59773",
"6. c #DB946C",
"7. c #EB9961",
"8. c #E29661",
"9. c #DBA37F",
"0. c #EDA36B",
"q. c #F1A364",
"w. c #E4A673",
"e. c #E4A875",
"r. c #E5AC7E",
"t. c #E8A67B",
"y. c #6B7C8C",
"u. c #5B8D97",
"i. c #7D8980",
"p. c #698A94",
"a. c #4690B1",
"s. c #0897D5",
"d. c #63ACC2",
"f. c #9B8580",
"g. c #BA9B8A",
"h. c #B9A68B",
"j. c #BEAB94",
"k. c #BFB099",
"l. c #A7B4A8",
"z. c #D59F80",
"x. c #C8A48B",
"c. c #D3A382",
"v. c #D9A585",
"b. c #D3A987",
"n. c #DCA984",
"m. c #DDAA89",
"M. c #D4AA88",
"N. c #C0B386",
"B. c #C3B98B",
"V. c #DBB38E",
"C. c #D6B18D",
"Z. c #D8AD91",
"A. c #C4B895",
"S. c #DDB592",
"D. c #DBBF9D",
"F. c #D9BD96",
"G. c #E6AE83",
"H. c #E2AF8B",
"J. c #E6B284",
"K. c #EAB385",
"L. c #E7B38B",
"P. c #E7BB8D",
"I. c #E8BB8F",
"U. c #E8B289",
"Y. c #E5B593",
"T. c #E8B694",
"R. c #E7BD92",
"E. c #E8BA96",
"W. c #E2BF9A",
"Q. c #E8BC99",
"!. c #B0C4B5",
"~. c #CBC193",
"^. c #D1C296",
"/. c #ECC08E",
"(. c #E7C194",
"). c #E8C295",
"_. c #E3C39B",
"`. c #E9C49C",
"'. c #E9C99D",
"]. c #DECBA6",
"[. c #E9C6A0",
"{. c #E6CCA3",
"}. c #E9CBA3",
"|. c #EAD1A7",
" X c #EAD4AA",
".X c #E6D1A7",
/* pixels */
"'.).r.G.E.[.}.}.[.`.G.E. X X`.L.U.[. X}.1.,.T.|. X X X}.}. X{.}.",
"G.J.T.E.[.{.P.r.G.G.Y.x.A.h.%.g.x.j.A.j._ _ Z.[. X X X X X|.L.G.",
"T.T.T.Q. XP.J.T.T.T.Z.e q q q q q q q q q e Z.[. X X X X X XQ.T.",
"E.`.`.`.).P.T.`.W.g.@.q 8 8 8 8 8 8 8 9 9 w f.g.E.[.}.[.}.[.`.`.",
"}.'.(.P.J.L.[.`.S.y 9 9 9 8 9 8 9 8 8 8 9 9 9 u 9.T.[.[.`.`.|.}.",
" X'.e.r.T.`.).K.v.e 8 9 8 8 8 8 8 9 9 8 8 8 8 u L.K.I.I.R.}.|.}.",
"P.P.J.T.'.|.P.R.D.y 8 9 8 8 9 8 8 8 8 8 9 8 8 u n.J.G.H.G.P.P.P.",
"J.L.}._.K.K.P.|.].y 7 8 8 9 9 9 8 9 8 9 9 8 7 y S.}.}.}.'.T.H.G.",
"E.`.}.).e.e.).}.^.e 1 7 9 8 7 9 7 8 7 7 7 7 1 r S.}. X X X[.T.E.",
"}.`.J.J.L.Q.}.:.( 5 : , , > , , , , , , , , : 6 ` 5.|.|. X|.}.}.",
"|.`.e.r.`.}.v.' j X : : : : : : : : > : : : : O v  .E.[. X[.[.}.",
"P.L.r.J.}.C.z.{ v o : . . 4 X . 5 4 4 4 4 4 > O v  .Y.Y.E.[.[.E.",
"r.G.Q.W.W.b.v.} j X < x v v v v v v v v v s < O k { r.r.H.L.L.G.",
"T.Q. XS.=.3.T.-.[ 0 # v v s x S S b s s v v # 0 | 5.T.T.G.w.t.L.",
"E.W.S.m.3.m.t.*.8.D b S s < # b S b # < c S b ' 7.0.K.`.L.G.G.Q.",
"}.W.=.<.T.t.o.W E Z S S s < # b b b + < s S n G E E &./.}.`.[.|.",
"[.W.=.1.t.o.E W R h $ v m = d l S b a & c m = g E W E &.(. X X}.",
"}.W.=.3.*.E E E I @ < c b l l F S S S n b f < # R W E E 8._. X}.",
" X_.=.3.>.U E E T @ > O + % [ 9.z.5.` $ @ o : * R E E P -.c._.}.",
" XW.=.<.;.F A A K * 2 2 : O M ) [ ) ! 5 : 2 2 = K Z Z S :.3._.}.",
"{.F.,.z.;.b b C P J H z > >     4 4   >   z H I P S n S :.z.F.}.",
"<.z.H.Y.-.l S S U W W J @ o X X 4 4 5 o @ I W W P S n S 4.W.z.<.",
"H.Y.T.Y. .C S S U E W E T T T T I I T I I E E V P k k S 5.|.T.Y.",
"G.T.T.U.>.D k S U W E E E E E E W W W W E E E E P S S D 2.`.Q.T.",
"U.H.J.J.).9.' G Y V E E E W V E V V V V E E E V U G  .2.`.W.T.L.",
"w.w.w.K. X Xc.O.O.Q B B B B B B V B B B B B B Q O.h.}. X`.T.T.t.",
"I.I.I._. X Xb.a.s.p.+.X.X.....%.q.$.....X.X...u.s.d.}.[.P.J.G.e.",
"|. X X_.M.M.c.@.p p i p i i p.!. Xl.p.i i i i i i f.G.G.L.R.R.R.",
"c.c.c.c.v.v.Y. .k k k C C C  .L.P.J.] S l l l l C  .R.W.{..XC.c.",
"m.m.m.Y.}.[.}.S.^ ; ; ~ 5.>.t.L.L.R.V.6.5.~ - - ^ c.c.z.9.3.v.M.",
"|.}.|.|.'.r.J._.^.B.B.~._.J.T.`.I.e.r.'..X~.N.j.^._.H.m.m.m.T.}.",
" X X X X/.w.e.L.Q.`. X X'.r.T.'.P.w.e.'. X|.<.c.E.E.T.E.T.E.E.|."
};
