/* XPM */
static char *wall_resized[] = {
/* columns rows colors chars-per-pixel */
"32 32 89 1 ",
"  c #84423A",
". c #894139",
"X c #8F4A3F",
"o c #9F4536",
"O c #934539",
"+ c #9D4739",
"@ c #964C3D",
"# c #9D4C3C",
"$ c #9D533F",
"% c #AE4633",
"& c #A74837",
"* c #AD4A36",
"= c #A14C3B",
"- c #AB4E3A",
"; c #B44732",
": c #B84732",
"> c #B54A35",
", c #BE4C33",
"< c #B44D38",
"1 c #BA4F38",
"2 c #A4543E",
"3 c #AD523D",
"4 c #BF5037",
"5 c #B5523A",
"6 c #BE533A",
"7 c #BD593E",
"8 c #C04D33",
"9 c #C15236",
"0 c #C15439",
"q c #C25A3D",
"w c #C85E3B",
"e c #C6613D",
"r c #CB633D",
"t c #944D41",
"y c #945346",
"u c #9C5444",
"i c #9D5E4D",
"p c #A75642",
"a c #AC5B46",
"s c #A35B49",
"d c #B35640",
"f c #B25A44",
"g c #BD5D42",
"h c #A5614E",
"j c #AC654E",
"k c #B76147",
"l c #BD6245",
"z c #B5634A",
"x c #BC664B",
"c c #B1684F",
"v c #BD6B4D",
"b c #A56553",
"n c #AB6753",
"m c #AC6954",
"M c #B36750",
"N c #B56C55",
"B c #BD6C52",
"V c #BD7354",
"C c #B5755C",
"Z c #BB755A",
"A c #B6785F",
"S c #BC795D",
"D c #B37760",
"F c #BD7D62",
"G c #C15C41",
"H c #C26345",
"J c #CA6742",
"K c #C66A44",
"L c #CA6C45",
"P c #C06449",
"I c #C36A4D",
"U c #D06D41",
"Y c #CE7146",
"T c #C5714D",
"R c #CC744C",
"E c #D17244",
"W c #D17549",
"Q c #D1784A",
"! c #C16C51",
"~ c #C27355",
"^ c #CA7651",
"/ c #CA7A54",
"( c #C27559",
") c #C27A5C",
"_ c #C87C59",
"` c #C17E62",
"' c #BE8267",
"] c #C28165",
"[ c #C18569",
/* pixels */
",,%&;,e2*g;;,,,,6Vv7,,;6KK,,;%:8",
"8,,:7xRv61 .:87vvSV681O>~ZvgO ;,",
"0q0wvVRLGGyt99eVV)TrGfugSFVl2@5g",
"Z~LJvvKlI(!xrwJI~KJR~ZB!IBILLKxI",
"Vx799,,*CB1,,999770(vg9,888q!g88",
"779,888q`B==&,9Gg76Vvg,,888qVa18",
"VvvKrrr_[Fmbb!!!v~I/)SI!IrrL~NBB",
"``]_YYT][''FF```'])Q)]]]~UE^^)``",
"qGgPc$37vV[FixGGg9GGGx`Np0990G)]",
",,8Gx<:,,7FAtd988888g!Ff>8889H)]",
"vl0HI09996)Syf998999YQCu,899eqEQ",
"QYI(QrrrY~YLZ(((```((((Z`)(IYUEU",
"]C@,947H~788880x`D!q9,9gZx69Iq88",
"[C=:;%56B5,8,,:MFBg88,,G!g,,vg88",
"[Z-,%&%6Ny>88,*a`!0,881G!g,9!f>8",
"_~hl7lqlZbxxGGx(`(!xPPG!(!PP!mgG",
"qHN(THwGPx])xBxxPPP)CBgGPPGGG(!G",
"81pxI9881l``xf-,886(is19G18:9J91",
"88>g^J98gB'A#1:,8:ONns88,,:88wt.",
"881H/WwqxV'Dt11,81tCBM9899990J@ ",
"~(~~^)))SS`FVV((((DD`(((((V)(YHH",
",998889Bs56,69gg0IBu1988,99vG089",
"188,886Kc1;;88:>9Pg<,8:8,,6I7,88",
"~vxG0GvVhfyu9953gBbaGG8GqlV~a709",
"``(E^`]R(FFFUEE^`]FF]]R_^``]``QE",
"!!IL~mNKP!!!UWLI!IBTZ)WKJI!!!!//",
"1,6lM#3,,,,8qK6,,8,4xvY7,198,6)]",
"+=gBn#369,96Ixu;,,44geV$&6gG,-`[",
"nnR(CnMBIB!BV~nzvI!IIV)lxB~)~xS`",
"gwJGggvGgB]Fu6G66HI(VVg90qgB)HGG",
"88J88,g6,x`D@>8:,,l)vl,8,,,gZG88",
"80I8:8,889`(>888,,6~6,8,8,,g~08,"
};
