/* XPM */
static char *wall[] = {
/* columns rows colors chars-per-pixel */
"64 64 102 2 ",
"   c #743D3B",
".  c #7D3E3A",
"X  c #7E4742",
"o  c #823F39",
"O  c #894139",
"+  c #8B4B3D",
"@  c #944236",
"#  c #9A4336",
"$  c #9A4738",
"%  c #944B3C",
"&  c #97523F",
"*  c #A24434",
"=  c #AC4533",
"-  c #AF4F37",
";  c #A14E3C",
":  c #AD4E3B",
">  c #B44632",
",  c #BA4731",
"<  c #B64933",
"1  c #BF4931",
"2  c #AC513C",
"3  c #BE5137",
"4  c #B5553F",
"5  c #BD553A",
"6  c #B4583F",
"7  c #BC5A3E",
"8  c #BD643F",
"9  c #C04A31",
"0  c #C45335",
"q  c #C75837",
"w  c #C1563C",
"e  c #C1583E",
"r  c #C95C38",
"t  c #C5613E",
"y  c #CD653C",
"u  c #D16A3E",
"i  c #834940",
"p  c #8A4E44",
"a  c #914F41",
"s  c #994F40",
"d  c #8D5046",
"f  c #935345",
"g  c #995241",
"h  c #905549",
"j  c #94594C",
"k  c #965D50",
"l  c #A35343",
"z  c #AB5542",
"x  c #AE5C43",
"c  c #A15E4B",
"v  c #BB5D42",
"b  c #9D6354",
"n  c #A6604B",
"m  c #A8654D",
"M  c #BC6345",
"N  c #B5624C",
"B  c #BB6649",
"V  c #B76C4B",
"C  c #BB6C4D",
"Z  c #B9704F",
"A  c #A56652",
"S  c #A36957",
"D  c #AD6B54",
"F  c #A76C59",
"G  c #B46B55",
"H  c #BC6B52",
"J  c #B36E58",
"K  c #BC7454",
"L  c #B7765E",
"P  c #BE7B5D",
"I  c #B57A62",
"U  c #BC7D62",
"Y  c #C05D43",
"T  c #C46142",
"R  c #C96643",
"E  c #CB6B44",
"W  c #C0644A",
"Q  c #C46A4C",
"!  c #CB6E49",
"~  c #D16F42",
"^  c #CD7143",
"/  c #C2724C",
"(  c #CB754B",
")  c #CE7A4F",
"_  c #D57443",
"`  c #D57847",
"'  c #D0774C",
"]  c #D2794C",
"[  c #C16D52",
"{  c #C17155",
"}  c #C87651",
"|  c #C57957",
" . c #CC7B54",
".. c #C1765A",
"X. c #C27C5D",
"o. c #CA7E59",
"O. c #D07B50",
"+. c #C27E62",
"@. c #C7815F",
"#. c #C9805C",
"$. c #C28265",
"%. c #C28569",
/* pixels */
"1 1 1 1 = = @ @ 1 1 , , y y & & = = B B , , , , 9 9 1 1 1 1 1 1 1 1 K K K K 3 3 1 1 1 1 , , 3 3 / / R R 1 1 1 1 , , > > 1 1 9 9 ",
"1 1 1 1 = = @ @ 1 1 , , y y & & = = B B , , , , 9 9 1 1 1 1 1 1 1 1 K K K K 3 3 1 1 1 1 , , 3 3 / / R R 1 1 1 1 , , > > 1 1 9 9 ",
"1 1 1 1 1 1 1 1 7 7 H H ( ( / / 3 3 9 9     . . 9 9 1 1 5 5 K K Z Z U U K K 3 3 1 1 1 1 . . 1 1 P P P P Z Z 7 7 O O     > > 1 1 ",
"1 1 1 1 1 1 1 1 7 7 H H ( ( / / 3 3 9 9     . . 9 9 1 1 5 5 K K Z Z U U K K 3 3 1 1 1 1 . . 1 1 P P P P Z Z 7 7 O O     > > 1 1 ",
"w w w w 0 0 q q B B K K ( ( ( ( e e w w d d a a 0 0 0 0 t t K K K K X.X.| | r r e e v v f f v v P P U U K K T T ; ; + + 4 4 e e ",
"w w w w 0 0 q q B B K K ( ( ( ( e e w w d d a a 0 0 0 0 t t K K K K X.X.| | r r e e v v f f v v P P U U K K T T ; ; + + 4 4 e e ",
"U U X.X.^ ^ E E { { K K E E 8 8 ( ( +.+.{ { [ [ y y y y E E { { { { E E y y ) ) X.X.U U [ [ { { [ [ { { { { ! ! ^ ^ ~ ~ [ [ { { ",
"U U X.X.^ ^ E E { { K K E E 8 8 ( ( +.+.{ { [ [ y y y y E E { { { { E E y y ) ) X.X.U U [ [ { { [ [ { { { { ! ! ^ ^ ~ ~ [ [ { { ",
"K K C C 5 5 9 9 9 9 9 9 1 1 * * L L K K 9 9 9 9 9 9 9 9 9 9 3 3 7 7 7 7 1 1 +.+.M M v v 1 1 1 1 1 1 1 1 1 1 3 3 ....v v 9 9 9 9 ",
"K K C C 5 5 9 9 9 9 9 9 1 1 * * L L K K 9 9 9 9 9 9 9 9 9 9 3 3 7 7 7 7 1 1 +.+.M M v v 1 1 1 1 1 1 1 1 1 1 3 3 ....v v 9 9 9 9 ",
"7 7 5 5 9 9 9 9 1 1 1 1 9 9 0 0 +.+.H H # # # # * * 9 9 0 0 w w 7 7 7 7 1 1 X.X.M M v v 1 1 1 1 1 1 1 1 1 1 0 0 ....l l , , 9 9 ",
"7 7 5 5 9 9 9 9 1 1 1 1 9 9 0 0 +.+.H H # # # # * * 9 9 0 0 w w 7 7 7 7 1 1 X.X.M M v v 1 1 1 1 1 1 1 1 1 1 0 0 ....l l , , 9 9 ",
"H H [ [ [ [ Q Q y y y y R R | | %.%.+.+.S S S S A A { { X.X.[ [ H H { { [ [  . .X.X.P P [ [ [ [ Q Q y y y y Q Q } } J J H H [ [ ",
"H H [ [ [ [ Q Q y y y y R R | | %.%.+.+.S S S S A A { { X.X.[ [ H H { { [ [  . .X.X.P P [ [ [ [ Q Q y y y y Q Q } } J J H H [ [ ",
"%.%.%.%.%.%.#.#._ _ _ _ o.o.%.%.%.%.%.%.%.%.%.%.%.%.%.%.+.+.+.+.%.%.%.%.%.%.` ` $.$.%.%.%.%.%.%.o.o._ _ _ _ o.o.O.O.+.+.$.$.$.$.",
"%.%.%.%.%.%.#.#._ _ _ _ o.o.%.%.%.%.%.%.%.%.%.%.%.%.%.%.+.+.+.+.%.%.%.%.%.%.` ` $.$.%.%.%.%.%.%.o.o._ _ _ _ o.o.O.O.+.+.$.$.$.$.",
"w w w w 5 5 W W D D + + 2 2 5 5 C C K K %.%.U U h h H H Y Y w w 5 5 w w w w w w w w v v $.$.D D s s 0 0 0 0 0 0 0 0 5 5 +.+.$.$.",
"w w w w 5 5 W W D D + + 2 2 5 5 C C K K %.%.U U h h H H Y Y w w 5 5 w w w w w w w w v v $.$.D D s s 0 0 0 0 0 0 0 0 5 5 +.+.$.$.",
"1 1 1 1 9 9 Y Y H H > > , , 1 1 1 1 3 3 %.%.U U o o 3 3 9 9 9 9 9 9 1 1 1 1 1 1 B B H H $.$.B B , , 1 1 1 1 9 9 1 1 M M $.$.%.%.",
"1 1 1 1 9 9 Y Y H H > > , , 1 1 1 1 3 3 %.%.U U o o 3 3 9 9 9 9 9 9 1 1 1 1 1 1 B B H H $.$.B B , , 1 1 1 1 9 9 1 1 M M $.$.%.%.",
"C C B B 9 9 Y Y [ [ 1 1 1 1 1 1 9 9 1 1 $.$.U U i i B B 9 9 9 9 1 1 9 9 1 1 1 1 _ _ _ _ I I O O 1 1 1 1 1 1 9 9 M M 3 3 ~ ~ ` ` ",
"C C B B 9 9 Y Y [ [ 1 1 1 1 1 1 9 9 1 1 $.$.U U i i B B 9 9 9 9 1 1 9 9 1 1 1 1 _ _ _ _ I I O O 1 1 1 1 1 1 9 9 M M 3 3 ~ ~ ` ` ",
"` ` _ _ ( ( $.$. . .u u _ _ _ _ _ _ +.+._ _ ^ ^ +.+.+.+.+.+.+.+.%.%.$.$.$.$.+.+.+.+.+.+.+.+.+.+.%.%.$.$.+.+.} } _ _ _ _ _ _ ~ ~ ",
"` ` _ _ ( ( $.$. . .u u _ _ _ _ _ _ +.+._ _ ^ ^ +.+.+.+.+.+.+.+.%.%.$.$.$.$.+.+.+.+.+.+.+.+.+.+.%.%.$.$.+.+.} } _ _ _ _ _ _ ~ ~ ",
"%.%.I I o o 9 9 9 9 9 9 v v 5 5 X.X.3 3 1 1 1 1 1 1 1 1 9 9 Y Y %.%.L L C C 0 0 1 1 1 1 1 1 5 5 U U v v 1 1 1 1 [ [ w w 1 1 1 1 ",
"%.%.I I o o 9 9 9 9 9 9 v v 5 5 X.X.3 3 1 1 1 1 1 1 1 1 9 9 Y Y %.%.L L C C 0 0 1 1 1 1 1 1 5 5 U U v v 1 1 1 1 [ [ w w 1 1 1 1 ",
"%.%.I I # # 9 9 > > = = 6 6 3 3 ....: : 1 1 9 9 1 1 1 1 > > N N %.%.K K B B 1 1 9 9 1 1 1 1 w w ....v v 1 1 1 1 { { Y Y 1 1 1 1 ",
"%.%.I I # # 9 9 > > = = 6 6 3 3 ....: : 1 1 9 9 1 1 1 1 > > N N %.%.K K B B 1 1 9 9 1 1 1 1 w w ....v v 1 1 1 1 { { Y Y 1 1 1 1 ",
"%.%.P P = = 9 9 = = @ @ = = 1 1 ....X X , , 9 9 9 9 1 1 = = n n %.%.Q Q 9 9 1 1 1 1 1 1 9 9 Y Y ....3 3 1 1 1 1 { { z z , , 9 9 ",
"%.%.P P = = 9 9 = = @ @ = = 1 1 ....X X , , 9 9 9 9 1 1 = = n n %.%.Q Q 9 9 1 1 1 1 1 1 9 9 Y Y ....3 3 1 1 1 1 { { z z , , 9 9 ",
"#.#.| | k k T T e e W W r r W W +.+.b b B B W W Y Y W W W W ....%.%.#.#.[ [ B B W W W W Y Y [ [ $.$.H H W W W W } } S S v v W W ",
"#.#.| | k k T T e e W W r r W W +.+.b b B B W W Y Y W W W W ....%.%.#.#.[ [ B B W W W W Y Y [ [ $.$.H H W W W W } } S S v v W W ",
"r r t t L L X.X.} } B B r r T T W W W W %.%.$.$.W W [ [ H H M M W W W W W W +.+.P P P P M M W W W W W W Y Y W W Y Y o.o.[ [ W W ",
"r r t t L L X.X.} } B B r r T T W W W W %.%.$.$.W W [ [ H H M M W W W W W W +.+.P P P P M M W W W W W W Y Y W W Y Y o.o.[ [ W W ",
"9 9 , , g g W W [ [ 1 1 1 1 9 9 1 1 v v $.$.$.$.M M x x ; ; 1 1 9 9 9 9 9 9 X.X.f f f f 9 9 1 1 7 7 1 1 1 1 1 1 9 9 ! ! 9 9 1 1 ",
"9 9 , , g g W W [ [ 1 1 1 1 9 9 1 1 v v $.$.$.$.M M x x ; ; 1 1 9 9 9 9 9 9 X.X.f f f f 9 9 1 1 7 7 1 1 1 1 1 1 9 9 ! ! 9 9 1 1 ",
"9 9 1 1 > > v v | | u u 0 0 9 9 v v H H $.$.U U % % 3 3 > > 1 1 9 9 9 9 o o ....m m c c 1 1 1 1 3 3 1 1 1 1 1 1 9 9 u u % % o o ",
"9 9 1 1 > > v v | | u u 0 0 9 9 v v H H $.$.U U % % 3 3 > > 1 1 9 9 9 9 o o ....m m c c 1 1 1 1 3 3 1 1 1 1 1 1 9 9 u u % % o o ",
"1 1 9 9 9 9 Y Y o.o._ _ r r 9 9 B B Z Z %.%.I I o o , , 1 1 9 9 9 9 9 9 o o L L H H H H 1 1 1 1 9 9 1 1 1 1 1 1 9 9 ~ ~ O O     ",
"1 1 9 9 9 9 Y Y o.o._ _ r r 9 9 B B Z Z %.%.I I o o , , 1 1 9 9 9 9 9 9 o o L L H H H H 1 1 1 1 9 9 1 1 1 1 1 1 9 9 ~ ~ O O     ",
"+.+.+.+.+.+.o.o. . .$.$.$.$.$.$.$.$.$.$.%.%.%.%.U U +.+.+.+.+.+.+.+.+.+.U U +.+.%.%.$.$.+.+.+.+.+.+.+.+.+.+.$.$.+.+.' ' E E ^ ^ ",
"+.+.+.+.+.+.o.o. . .$.$.$.$.$.$.$.$.$.$.%.%.%.%.U U +.+.+.+.+.+.+.+.+.+.U U +.+.%.%.$.$.+.+.+.+.+.+.+.+.+.+.$.$.+.+.' ' E E ^ ^ ",
"1 1 9 9 1 1 1 1 1 1 1 1 9 9 { { d d < < 1 1 , , 1 1 1 1 7 7 v v 9 9 Q Q { { i i < < 9 9 9 9 9 9 1 1 9 9 9 9 H H Y Y 9 9 9 9 9 9 ",
"1 1 9 9 1 1 1 1 1 1 1 1 9 9 { { d d < < 1 1 , , 1 1 1 1 7 7 v v 9 9 Q Q { { i i < < 9 9 9 9 9 9 1 1 9 9 9 9 H H Y Y 9 9 9 9 9 9 ",
"3 3 9 9 1 1 1 1 1 1 1 1 1 1 E E C C < < < < < < 9 9 9 9 , , 1 1 9 9 [ [ v v 9 9 9 9 9 9 1 1 9 9 1 1 1 1 1 1 { { 7 7 , , 9 9 9 9 ",
"3 3 9 9 1 1 1 1 1 1 1 1 1 1 E E C C < < < < < < 9 9 9 9 , , 1 1 9 9 [ [ v v 9 9 9 9 9 9 1 1 9 9 1 1 1 1 1 1 { { 7 7 , , 9 9 9 9 ",
"K K H H v v W W 0 0 e e C C X.X.j j 6 6 p p d d 0 0 0 0 - - ; ; w w { { k k z z Y Y w w 9 9 w w q q M M K K  . .g g 4 4 0 0 0 0 ",
"K K H H v v W W 0 0 e e C C X.X.j j 6 6 p p d d 0 0 0 0 - - ; ; w w { { k k z z Y Y w w 9 9 w w q q M M K K  . .g g 4 4 0 0 0 0 ",
"%.%.%.%.X.X._ _ O.O.%.%.%.%.] ] +.+.%.%.%.%.$.$._ _ _ _ _ _  . .%.%.%.%.%.%.%.%.%.%.%.%.` ` @.@. . .$.$.$.$.%.%.%.%.%.%.] ] _ _ ",
"%.%.%.%.X.X._ _ O.O.%.%.%.%.] ] +.+.%.%.%.%.$.$._ _ _ _ _ _  . .%.%.%.%.%.%.%.%.%.%.%.%.` ` @.@. . .$.$.$.$.%.%.%.%.%.%.] ] _ _ ",
"[ [ [ [ Q Q ~ ~ K K F F G G R R W W [ [ [ [ [ [ ~ ~ ] ] E E Q Q [ [ [ [ [ [ [ [ P P P P _ _ Q Q R R [ [ [ [ [ [ [ [ [ [  . .O.O.",
"[ [ [ [ Q Q ~ ~ K K F F G G R R W W [ [ [ [ [ [ ~ ~ ] ] E E Q Q [ [ [ [ [ [ [ [ P P P P _ _ Q Q R R [ [ [ [ [ [ [ [ [ [  . .O.O.",
"1 1 1 1 1 1 Y Y G G # # 2 2 1 1 1 1 1 1 1 1 9 9 0 0 } } 3 3 1 1 1 1 1 1 1 1 1 1 C C Z Z _ _ 7 7 9 9 1 1 1 1 1 1 9 9 9 9 +.+.%.%.",
"1 1 1 1 1 1 Y Y G G # # 2 2 1 1 1 1 1 1 1 1 9 9 0 0 } } 3 3 1 1 1 1 1 1 1 1 1 1 C C Z Z _ _ 7 7 9 9 1 1 1 1 1 1 9 9 9 9 +.+.%.%.",
"@ @ $ $ M M C C D D @ @ 2 2 3 3 1 1 1 1 1 1 3 3 W W C C @ @ = = 1 1 1 1 1 1 1 1 7 7 7 7 | | + + * * 3 3 v v t t 9 9 # # U U %.%.",
"@ @ $ $ M M C C D D @ @ 2 2 3 3 1 1 1 1 1 1 3 3 W W C C @ @ = = 1 1 1 1 1 1 1 1 7 7 7 7 | | + + * * 3 3 v v t t 9 9 # # U U %.%.",
"F F F F ( ( +.+.I I F F G G { { [ [ { { { { { { X.X.| | F F J J [ [ [ [ { { R R { { { { $.$.8 8 B B ....P P @.@.| | M M $.$.%.%.",
"F F F F ( ( +.+.I I F F G G { { [ [ { { { { { { X.X.| | F F J J [ [ [ [ { { R R { { { { $.$.8 8 B B ....P P @.@.| | M M $.$.%.%.",
"Y Y r r ! ! w w v v w w H H Y Y v v H H %.%.U U a a 0 0 Y Y 5 5 5 5 Y Y C C @.@.K K K K e e 0 0 w w 5 5 Y Y B B +.+.Y Y e e w w ",
"Y Y r r ! ! w w v v w w H H Y Y v v H H %.%.U U a a 0 0 Y Y 5 5 5 5 Y Y C C @.@.K K K K e e 0 0 w w 5 5 Y Y B B +.+.Y Y e e w w ",
"9 9 9 9 ~ ~ 9 9 1 1 1 1 M M 3 3 1 1 V V +.+.U U o o 9 9 1 1 1 1 1 1 1 1 M M $.$.Z Z C C 1 1 1 1 1 1 9 9 1 1 v v U U w w 9 9 1 1 ",
"9 9 9 9 ~ ~ 9 9 1 1 1 1 M M 3 3 1 1 V V +.+.U U o o 9 9 1 1 1 1 1 1 1 1 M M $.$.Z Z C C 1 1 1 1 1 1 9 9 1 1 v v U U w w 9 9 1 1 ",
"1 1 0 0 { { 1 1 1 1 9 9 1 1 9 9 1 1 1 1 $.$.+.+., , 9 9 1 1 1 1 1 1 1 1 1 1 X.X.3 3 1 1 1 1 1 1 1 1 1 1 1 1 M M X.X.w w 1 1 1 1 ",
"1 1 0 0 { { 1 1 1 1 9 9 1 1 9 9 1 1 1 1 $.$.+.+., , 9 9 1 1 1 1 1 1 1 1 1 1 X.X.3 3 1 1 1 1 1 1 1 1 1 1 1 1 M M X.X.w w 1 1 1 1 "
};
